<svg width="24" height="24" viewBox="0 0 24 24" fill="none" xmlns="http://www.w3.org/2000/svg">
<path d="M10.3001 2.13999C8.49503 2.45266 6.81051 3.25518 5.43043 4.45995C4.05035 5.66473 3.02774 7.22547 2.47422 8.97181C1.9207 10.7182 1.85753 12.583 2.29162 14.3628C2.72571 16.1426 3.64037 17.7689 4.93577 19.0643C6.23117 20.3597 7.85752 21.2744 9.63731 21.7085C11.4171 22.1426 13.282 22.0794 15.0283 21.5259C16.7746 20.9724 18.3354 19.9498 19.5402 18.5697C20.7449 17.1896 21.5474 15.5051 21.8601 13.7C22.1336 12.121 22.0236 10.4994 21.5395 8.97181C21.0553 7.44421 20.211 6.05534 19.0779 4.9222C17.9448 3.78907 16.5559 2.94484 15.0283 2.46066C13.5007 1.97647 11.8791 1.86649 10.3001 2.13999ZM10.5601 20.38C9.02494 20.1154 7.59199 19.4341 6.41779 18.4104C5.24359 17.3867 4.37329 16.06 3.90196 14.5752C3.43064 13.0904 3.37641 11.5047 3.74521 9.99115C4.114 8.47763 4.89164 7.09457 5.99317 5.99305C7.0947 4.89152 8.47776 4.11388 9.99127 3.74509C11.5048 3.37629 13.0905 3.43052 14.5753 3.90184C16.0601 4.37317 17.3868 5.24346 18.4105 6.41767C19.4342 7.59187 20.1156 9.02482 20.3801 10.56C20.6112 11.9011 20.5169 13.2781 20.1052 14.5752C19.6934 15.8723 18.9763 17.0516 18.014 18.0139C17.0517 18.9761 15.8724 19.6933 14.5753 20.1051C13.2782 20.5168 11.9012 20.6111 10.5601 20.38Z" fill="white" fill-opacity="0.68"/>
<path d="M12.75 7.5C12.75 7.08579 12.4142 6.75 12 6.75C11.5858 6.75 11.25 7.08579 11.25 7.5C11.25 7.91421 11.5858 8.25 12 8.25C12.4142 8.25 12.75 7.91421 12.75 7.5Z" fill="white" fill-opacity="0.68"/>
<path d="M12 10.25C11.8011 10.25 11.6103 10.329 11.4697 10.4697C11.329 10.6103 11.25 10.8011 11.25 11V16.5C11.2526 16.6981 11.3324 16.8874 11.4725 17.0275C11.6126 17.1676 11.8019 17.2474 12 17.25C12.1981 17.2474 12.3874 17.1676 12.5275 17.0275C12.6676 16.8874 12.7474 16.6981 12.75 16.5V11C12.75 10.8011 12.671 10.6103 12.5303 10.4697C12.3897 10.329 12.1989 10.25 12 10.25Z" fill="white" fill-opacity="0.68"/>
</svg>
