<svg width="146" height="108" viewBox="0 0 146 108" fill="none" xmlns="http://www.w3.org/2000/svg">
<path d="M129.026 0.331238H16.976C7.67601 0.331238 0.132812 7.87492 0.132812 17.1744V69.912C0.132812 79.212 7.67025 86.7552 16.976 86.7552H29.0135V107.667L56.639 86.7552H129.026C138.326 86.7552 145.869 79.2116 145.869 69.912L145.863 17.1744C145.869 7.87444 138.326 0.331238 129.026 0.331238H129.026ZM101.2 21.1744C105.388 21.1744 108.788 24.5682 108.788 28.762C108.788 32.9557 105.388 36.3557 101.2 36.3557C97.0063 36.3557 93.6125 32.9557 93.6125 28.762C93.6125 24.5682 97.0063 21.1744 101.2 21.1744ZM66.2256 47.1936C66.2256 49.05 64.7194 50.5624 62.8568 50.5624H51.3506V62.0749C51.3506 63.9312 49.8443 65.4437 47.9818 65.4437H40.6818C38.8255 65.4437 37.313 63.9375 37.313 62.0749V50.5624H25.8005C23.9442 50.5624 22.4317 49.0562 22.4317 47.1936V39.8936C22.4317 38.0373 23.9379 36.5248 25.8005 36.5248H37.313V25.0186C37.313 23.1623 38.8192 21.6498 40.6818 21.6498H47.9818C49.8381 21.6498 51.3506 23.1561 51.3506 25.0186V36.5248H62.8568C64.7131 36.5248 66.2256 38.0311 66.2256 39.8936V47.1936ZM86.4192 51.1373C82.2255 51.1373 78.8317 47.7373 78.8317 43.5436C78.8317 39.356 82.2317 35.9498 86.4192 35.9498C90.613 35.9498 94.013 39.356 94.013 43.5436C94.0067 47.7373 90.613 51.1373 86.4192 51.1373ZM101.2 65.9061C97.0067 65.9061 93.613 62.5061 93.613 58.3186C93.613 54.1311 97.0067 50.7248 101.2 50.7248C105.388 50.7248 108.788 54.1248 108.788 58.3186C108.788 62.5124 105.388 65.9061 101.2 65.9061ZM115.976 51.1373C111.788 51.1373 108.388 47.7373 108.388 43.5436C108.388 39.356 111.788 35.9498 115.976 35.9498C120.176 35.9498 123.563 39.356 123.563 43.5436C123.563 47.7373 120.176 51.1373 115.976 51.1373Z" fill="white" fill-opacity="0.47"/>
</svg>
