<svg width="24" height="24" viewBox="0 0 24 24" fill="none" xmlns="http://www.w3.org/2000/svg">
<path d="M10 9.94H8.75V8.69C8.75 8.49109 8.67098 8.30032 8.53033 8.15967C8.38968 8.01902 8.19891 7.94 8 7.94C7.80109 7.94 7.61032 8.01902 7.46967 8.15967C7.32902 8.30032 7.25 8.49109 7.25 8.69V9.94H6C5.80109 9.94 5.61032 10.019 5.46967 10.1597C5.32902 10.3003 5.25 10.4911 5.25 10.69C5.25 10.8889 5.32902 11.0797 5.46967 11.2203C5.61032 11.361 5.80109 11.44 6 11.44H7.25V12.69C7.25 12.8889 7.32902 13.0797 7.46967 13.2203C7.61032 13.361 7.80109 13.44 8 13.44C8.19891 13.44 8.38968 13.361 8.53033 13.2203C8.67098 13.0797 8.75 12.8889 8.75 12.69V11.44H10C10.1989 11.44 10.3897 11.361 10.5303 11.2203C10.671 11.0797 10.75 10.8889 10.75 10.69C10.75 10.4911 10.671 10.3003 10.5303 10.1597C10.3897 10.019 10.1989 9.94 10 9.94Z" fill="white" fill-opacity="0.68"/>
<path d="M19.36 6.11C17.57 4.66 15.28 5.11 13.61 5.48C13.0822 5.61266 12.5432 5.69635 12 5.73C11.2329 5.70115 10.4699 5.6041 9.72 5.44C8 5.11 6 4.73 4.41 6C2.82 7.27 2 10.35 2 15.37C2 16.52 2.12 18.11 3.19 18.69C4.26 19.27 5.88 18.33 7.6 17.18C9.04 16.18 10.68 15.12 12 15.12C13.32 15.12 15 16.21 16.4 17.18C17.8 18.15 19 18.89 20 18.89C20.2851 18.8878 20.5659 18.8193 20.82 18.69C21.89 18.11 22.01 16.52 22.01 15.37C22 10.58 21.14 7.55 19.36 6.11ZM20.1 17.36C19.69 17.58 18.21 16.59 17.23 15.93C15.61 14.85 13.77 13.62 12 13.62C10.23 13.62 8.39 14.85 6.77 15.93C5.77 16.59 4.3 17.58 3.9 17.36C3.9 17.36 3.5 17.13 3.5 15.36C3.5 10.95 4.13 8.19 5.37 7.16C6.37 6.33 7.87 6.6 9.44 6.9C10.2813 7.08916 11.1383 7.19964 12 7.23C12.6461 7.21836 13.2894 7.1413 13.92 7C15.45 6.68 17.18 6.32 18.42 7.32C19.66 8.32 20.5 11.17 20.5 15.42C20.5 17.13 20.12 17.35 20.1 17.36V17.36Z" fill="white" fill-opacity="0.68"/>
<path d="M16.0698 10.19C16.484 10.19 16.8198 9.85421 16.8198 9.44C16.8198 9.02579 16.484 8.69 16.0698 8.69C15.6556 8.69 15.3198 9.02579 15.3198 9.44C15.3198 9.85421 15.6556 10.19 16.0698 10.19Z" fill="white" fill-opacity="0.68"/>
<path d="M16.0698 12.69C16.484 12.69 16.8198 12.3542 16.8198 11.94C16.8198 11.5258 16.484 11.19 16.0698 11.19C15.6556 11.19 15.3198 11.5258 15.3198 11.94C15.3198 12.3542 15.6556 12.69 16.0698 12.69Z" fill="white" fill-opacity="0.68"/>
<path d="M14.8198 11.44C15.234 11.44 15.5698 11.1042 15.5698 10.69C15.5698 10.2758 15.234 9.94 14.8198 9.94C14.4056 9.94 14.0698 10.2758 14.0698 10.69C14.0698 11.1042 14.4056 11.44 14.8198 11.44Z" fill="white" fill-opacity="0.68"/>
<path d="M17.3198 11.44C17.734 11.44 18.0698 11.1042 18.0698 10.69C18.0698 10.2758 17.734 9.94 17.3198 9.94C16.9056 9.94 16.5698 10.2758 16.5698 10.69C16.5698 11.1042 16.9056 11.44 17.3198 11.44Z" fill="white" fill-opacity="0.68"/>
</svg>
