<svg width="24" height="24" viewBox="0 0 24 24" fill="none" xmlns="http://www.w3.org/2000/svg">
<path fill-rule="evenodd" clip-rule="evenodd" d="M13.4939 0.68068C12.756 0.258906 11.85 0.258906 11.1121 0.680679L4.37402 4.53185L14.8371 10.6585C15.8553 11.2547 15.8553 12.7452 14.8371 13.3415L4.37403 19.4681L11.1121 23.3193C11.85 23.7411 12.756 23.7411 13.4939 23.3193L21.5916 18.691C22.3393 18.2637 22.8007 17.4685 22.8007 16.6074V7.39262C22.8007 6.53144 22.3393 5.73628 21.5916 5.30895L13.4939 0.68068Z" fill="white"/>
<path fill-rule="evenodd" clip-rule="evenodd" d="M10.9366 12.7546C11.5547 12.4192 11.5547 11.5808 10.9366 11.2454L2.5911 6.71804C1.97292 6.38267 1.2002 6.80188 1.2002 7.4726V16.5274C1.2002 17.1981 1.97292 17.6173 2.5911 17.282L10.9366 12.7546ZM3.6002 13.2C4.26294 13.2 4.8002 12.6627 4.8002 12C4.8002 11.3373 4.26294 10.8 3.6002 10.8C2.93745 10.8 2.4002 11.3373 2.4002 12C2.4002 12.6627 2.93745 13.2 3.6002 13.2Z" fill="#0A85ED"/>
</svg>
