<svg width="36" height="33" viewBox="0 0 36 33" fill="none" xmlns="http://www.w3.org/2000/svg">
<path d="M2.25 30V21H15.75V32.25H4.5C3.86719 32.25 3.30469 32.0391 2.88281 31.6172C2.46094 31.1953 2.25 30.6328 2.25 30ZM33.75 9.75C34.3125 9.75 34.875 10.0312 35.2969 10.4531C35.7188 10.875 36 11.4375 36 12V17.625C36 17.9766 35.8594 18.2578 35.6484 18.4688C35.4375 18.6797 35.1562 18.75 34.875 18.75H1.125C0.773438 18.75 0.492188 18.6797 0.28125 18.4688C0.0703125 18.2578 0 17.9766 0 17.625V12C0 11.4375 0.210938 10.875 0.632812 10.4531C1.05469 10.0312 1.61719 9.75 2.25 9.75H5.34375C4.85156 8.90625 4.64062 7.92188 4.64062 6.9375C4.64062 5.25 5.20312 3.84375 6.46875 2.57812C7.66406 1.38281 9.14062 0.75 10.8281 0.75C12.2344 0.75 13.5 1.17188 14.625 1.94531C15.6094 2.64844 16.8047 3.84375 18.0703 5.53125C19.3359 3.84375 20.4609 2.64844 21.5156 1.94531C22.6406 1.17188 23.9062 0.75 25.3125 0.75C27 0.75 28.4062 1.38281 29.6719 2.57812C30.8672 3.84375 31.5 5.25 31.5 6.9375C31.5 7.92188 31.2188 8.83594 30.7969 9.75H33.75ZM10.8281 9.75H16.875C15.6797 8.0625 14.6953 6.72656 13.9922 5.88281C13.2891 5.17969 12.7266 4.6875 12.2344 4.40625C11.8125 4.26562 11.3906 4.125 10.8281 4.125C9.98438 4.125 9.35156 4.40625 8.78906 4.96875C8.22656 5.53125 8.01562 6.16406 8.01562 6.9375C8.01562 7.78125 8.22656 8.41406 8.78906 8.97656C9.35156 9.53906 9.98438 9.75 10.8281 9.75ZM25.3125 9.75C26.0859 9.75 26.7188 9.53906 27.2812 8.97656C27.8438 8.41406 28.125 7.78125 28.125 6.9375C28.125 6.16406 27.8438 5.53125 27.2812 4.96875C26.7188 4.40625 26.0859 4.125 25.3125 4.125C24.75 4.125 24.2578 4.26562 23.9062 4.40625C23.3438 4.6875 22.7812 5.17969 22.1484 5.88281C21.375 6.72656 20.3906 8.0625 19.2656 9.75H25.3125ZM20.25 32.25V21H33.75V30C33.75 30.6328 33.4688 31.1953 33.0469 31.6172C32.625 32.0391 32.0625 32.25 31.5 32.25H20.25Z" fill="#0A85ED"/>
<script xmlns=""/></svg>