<svg width="24" height="24" viewBox="0 0 24 24" fill="none" xmlns="http://www.w3.org/2000/svg">
<path d="M19.7517 20.9629H15.812C15.3316 20.9461 14.8765 20.7434 14.5428 20.3975C14.209 20.0516 14.0226 19.5896 14.0229 19.1089V15.8273C14.0241 15.7726 14.0145 15.7181 13.9947 15.667C13.9749 15.6159 13.9452 15.5692 13.9073 15.5296C13.8694 15.49 13.8241 15.4583 13.774 15.4362C13.7238 15.4141 13.6698 15.4021 13.615 15.4009H10.9267C10.8731 15.4009 10.8201 15.4115 10.7706 15.432C10.7211 15.4525 10.6762 15.4825 10.6383 15.5204C10.6004 15.5583 10.5704 15.6032 10.5499 15.6527C10.5294 15.7022 10.5188 15.7552 10.5188 15.8088V19.146C10.5188 19.6377 10.3235 20.1093 9.9758 20.457C9.62811 20.8047 9.15654 21 8.66483 21H4.79924C4.55832 21.0001 4.31983 20.9518 4.09794 20.858C3.87604 20.7642 3.67526 20.6267 3.50752 20.4538C3.33977 20.2808 3.20849 20.076 3.12145 19.8513C3.03442 19.6267 2.99341 19.3868 3.00086 19.146V9.42177C2.99951 8.87636 3.14625 8.34081 3.42543 7.87226C3.7046 7.40371 4.10573 7.01973 4.58603 6.76129L10.8247 3.36847C11.2684 3.12668 11.7656 3 12.2709 3C12.7761 3 13.2733 3.12668 13.717 3.36847L19.9557 6.76129C20.436 7.01973 20.8371 7.40371 21.1163 7.87226C21.3955 8.34081 21.5422 8.87636 21.5409 9.42177V19.146C21.5317 19.6202 21.341 20.0729 21.0082 20.4109C20.6755 20.7488 20.2258 20.9464 19.7517 20.9629ZM10.9267 14.0104H13.615C14.097 14.0249 14.5544 14.2266 14.8902 14.5727C15.2259 14.9189 15.4136 15.3822 15.4134 15.8644V19.1831C15.4109 19.2922 15.4512 19.3979 15.5257 19.4776C15.6002 19.5573 15.703 19.6047 15.812 19.6095H19.7517C19.8608 19.6047 19.9635 19.5573 20.0381 19.4776C20.1126 19.3979 20.1529 19.2922 20.1504 19.1831V9.42177C20.1509 9.12764 20.072 8.83882 19.9218 8.58589C19.7717 8.33295 19.556 8.12531 19.2975 7.98493L13.0495 4.5643C12.8113 4.43199 12.5433 4.36257 12.2709 4.36257C11.9984 4.36257 11.7304 4.43199 11.4922 4.5643L5.2442 7.98493C4.98573 8.12531 4.77001 8.33295 4.61988 8.58589C4.46975 8.83882 4.39079 9.12764 4.39136 9.42177V19.1553C4.39133 19.2643 4.43401 19.369 4.51024 19.447C4.58648 19.525 4.69022 19.57 4.79924 19.5724H8.70191C8.75791 19.5724 8.81336 19.5614 8.86509 19.54C8.91683 19.5185 8.96384 19.4871 9.00343 19.4475C9.04303 19.4079 9.07444 19.3609 9.09587 19.3092C9.1173 19.2575 9.12833 19.202 9.12833 19.146V15.8088C9.12833 15.3318 9.3178 14.8744 9.65506 14.5372C9.99232 14.1999 10.4497 14.0104 10.9267 14.0104Z" fill="white" fill-opacity="0.68"/>
</svg>
