<svg width="20" height="20" viewBox="0 0 20 20" fill="none" xmlns="http://www.w3.org/2000/svg">
<path d="M12.871 6.90323H7.16129C7.3871 5.45161 7.77419 4.25806 8.29032 3.35484C8.80645 2.45161 9.35484 2 10 2C10.6129 2 11.1935 2.45161 11.7097 3.35484C12.2258 4.25806 12.6129 5.45161 12.871 6.90323ZM6.90323 10C6.90323 9.32258 6.93548 8.64516 7 7.93548H13C13.0645 8.64516 13.0968 9.32258 13.0968 10C13.0968 10.7097 13.0645 11.3871 13 12.0645H7C6.93548 11.3871 6.90323 10.7097 6.90323 10ZM17.3871 6.90323H13.9032C13.5806 4.93548 13.0323 3.41935 12.2903 2.32258C13.4194 2.67742 14.4194 3.25806 15.3226 4.06452C16.2258 4.87097 16.9032 5.80645 17.3871 6.90323ZM7.70968 2.32258C6.93548 3.41935 6.3871 4.93548 6.09677 6.90323H2.6129C3.06452 5.80645 3.74194 4.87097 4.64516 4.06452C5.54839 3.25806 6.54839 2.67742 7.70968 2.32258ZM17.7097 7.93548C17.9032 8.64516 18 9.32258 18 10C18 10.7097 17.9032 11.3871 17.7097 12.0645H14.0323C14.0968 11.3548 14.129 10.6774 14.129 10C14.129 9.35484 14.0968 8.64516 14.0323 7.93548H17.7097ZM5.87097 10C5.87097 10.6452 5.90323 11.3548 5.96774 12.0645H2.29032C2.09677 11.3548 2 10.6774 2 10C2 9.35484 2.09677 8.64516 2.29032 7.93548H5.96774C5.90323 8.64516 5.87097 9.35484 5.87097 10ZM7.16129 13.0968H12.8387C12.5806 14.5806 12.2258 15.7419 11.7097 16.6452C11.1935 17.5484 10.6129 18 10 18C9.35484 18 8.80645 17.5484 8.29032 16.6452C7.77419 15.7419 7.3871 14.5806 7.16129 13.0968ZM12.2903 17.6774C13.0645 16.6129 13.5806 15.0968 13.9032 13.0968H17.3871C16.9032 14.1935 16.2258 15.1613 15.3226 15.9677C14.4194 16.7742 13.4194 17.3548 12.2903 17.6774ZM2.6129 13.0968H6.09677C6.41935 15.0968 6.93548 16.6129 7.70968 17.6774C6.54839 17.3548 5.54839 16.7742 4.64516 15.9677C3.74194 15.1613 3.06452 14.1935 2.6129 13.0968Z" fill="#6C757D"/>
</svg>
