<svg width="354" height="246" viewBox="0 0 354 246" fill="none" xmlns="http://www.w3.org/2000/svg">
<g clip-path="url(#clip0)">
<g opacity="0.7">
<path opacity="0.7" d="M67.7642 64.7344V71.1453" stroke="#C9D7ED" stroke-width="2.33" stroke-linecap="round" stroke-linejoin="round"/>
<path opacity="0.7" d="M70.9662 67.9395H64.5621" stroke="#C9D7ED" stroke-width="2.33" stroke-linecap="round" stroke-linejoin="round"/>
</g>
<g opacity="0.7">
<path opacity="0.7" d="M167.944 -2.22461V2.08182" stroke="#C9D7ED" stroke-width="2.33" stroke-linecap="round" stroke-linejoin="round"/>
<path opacity="0.7" d="M170.098 -0.0742188H165.796" stroke="#C9D7ED" stroke-width="2.33" stroke-linecap="round" stroke-linejoin="round"/>
</g>
<g opacity="0.7">
<path opacity="0.7" d="M243.08 27.4336V36.293" stroke="#C9D7ED" stroke-width="2.33" stroke-linecap="round" stroke-linejoin="round"/>
<path opacity="0.7" d="M247.502 31.8652H238.658" stroke="#C9D7ED" stroke-width="2.33" stroke-linecap="round" stroke-linejoin="round"/>
</g>
<g opacity="0.7">
<path opacity="0.7" d="M328.882 43.9414V49.0506" stroke="#C9D7ED" stroke-width="2.33" stroke-linecap="round" stroke-linejoin="round"/>
<path opacity="0.7" d="M331.431 46.498H326.327" stroke="#C9D7ED" stroke-width="2.33" stroke-linecap="round" stroke-linejoin="round"/>
</g>
<path d="M94.3714 51.9873C95.5198 51.9873 96.4508 51.0554 96.4508 49.9058C96.4508 48.7562 95.5198 47.8242 94.3714 47.8242C93.2231 47.8242 92.2921 48.7562 92.2921 49.9058C92.2921 51.0554 93.2231 51.9873 94.3714 51.9873Z" stroke="#9FC3FD" stroke-width="1.96" stroke-linecap="round" stroke-linejoin="round"/>
<path d="M276.321 56.8672C277.308 56.8672 278.108 56.0662 278.108 55.0782C278.108 54.0901 277.308 53.2891 276.321 53.2891C275.333 53.2891 274.533 54.0901 274.533 55.0782C274.533 56.0662 275.333 56.8672 276.321 56.8672Z" stroke="#C9D7ED" stroke-width="2.33" stroke-linecap="round" stroke-linejoin="round"/>
<path d="M271.893 80.9844C272.88 80.9844 273.68 80.1834 273.68 79.1953C273.68 78.2073 272.88 77.4062 271.893 77.4062C270.906 77.4062 270.105 78.2073 270.105 79.1953C270.105 80.1834 270.906 80.9844 271.893 80.9844Z" stroke="#9FC3FD" stroke-width="1.96" stroke-linecap="round" stroke-linejoin="round"/>
<path d="M192.293 22.3952L188.669 25.5547L191.825 29.1829L195.449 26.0234L192.293 22.3952Z" stroke="#9FC3FD" stroke-width="1.48" stroke-linecap="round" stroke-linejoin="round"/>
<path d="M320.656 107.288L317.032 110.447L320.188 114.075L323.812 110.916L320.656 107.288Z" stroke="#C9D7ED" stroke-width="2.33" stroke-linecap="round" stroke-linejoin="round"/>
<path d="M272.162 17.0251L273.033 20.2168L276.222 19.3448L275.35 16.1531L272.162 17.0251Z" stroke="#9FC3FD" stroke-width="1.48" stroke-linecap="round" stroke-linejoin="round"/>
<path d="M329.816 193.474C328.292 209.054 319.505 224.657 317.214 226.475C314.842 228.378 310.844 227.3 308.003 227.3H82.8864L82.7546 227.065C77.1639 217.271 70.8171 207.775 67.6437 196.817C58.8167 166.293 86.9534 145.685 105.14 126.154C115.548 114.978 116.339 98.8814 125.349 86.9427C137.688 70.6 158.572 62.0846 178.472 60.7543C201.385 59.229 220.826 67.4863 234.734 86.0481C246.19 101.324 252.692 124.967 270.672 134.159C277.117 137.456 284.586 137.857 291.574 139.732C314.35 145.862 332.164 169.476 329.816 193.474Z" fill="#E5EEFD"/>
<path opacity="0.2" d="M103.915 151.775H123.253V226.189H101.136V154.551C101.138 153.814 101.431 153.108 101.952 152.588C102.473 152.068 103.179 151.775 103.915 151.775Z" fill="#3F72BA"/>
<path d="M116.751 30.2478C115.428 30.3969 114.105 30.4829 112.782 30.5689C111.458 30.6549 110.135 30.7065 108.806 30.7639C107.477 30.8212 106.16 30.8441 104.837 30.8556C103.514 30.8671 102.185 30.8556 100.861 30.8556H100.816C100.628 30.8485 100.447 30.7777 100.305 30.6547C100.162 30.5318 100.066 30.3641 100.031 30.179C99.458 27.61 98.8852 25.0697 97.6135 22.9538C97.0167 21.9019 96.2172 20.9792 95.2615 20.239C94.3057 19.4987 93.2127 18.9558 92.0458 18.6416C89.7889 18.1313 87.1539 18.9169 85.8078 20.7346C85.1372 21.698 84.7411 22.8259 84.6622 23.9974C84.5653 25.2637 84.5825 26.5361 84.7137 27.7992H82.9953C83.1206 26.3817 82.7545 24.9643 81.9585 23.7853C81.5691 23.2141 81.0598 22.7349 80.4661 22.3813C79.8725 22.0277 79.2088 21.8082 78.5216 21.7381C77.8635 21.6384 77.1909 21.7094 76.5681 21.9444C75.9453 22.1793 75.3931 22.5703 74.9644 23.0799C74.5437 23.5785 74.2644 24.181 74.1556 24.8245C74.0468 25.468 74.1124 26.129 74.3458 26.7384L72.7705 27.4322C72.662 27.2218 72.4745 27.063 72.2493 26.9907C71.9759 26.8904 71.6792 26.8724 71.3958 26.9391C71.081 27.0523 70.7948 27.2332 70.5573 27.469C70.3198 27.7047 70.1368 27.9897 70.021 28.3039C69.7173 29.0283 69.5879 29.8139 69.6429 30.5976C69.6898 31.394 69.9191 32.169 70.3131 32.8626C70.4125 33.0622 70.4317 33.2924 70.3667 33.5057C70.3017 33.7191 70.1575 33.8993 69.9637 34.0094C69.8406 34.0763 69.7028 34.1117 69.5628 34.1127C67.1397 34.1471 64.7167 34.1413 62.2937 34.1127C59.8707 34.084 57.4534 34.0496 55.0304 33.9808C50.1844 33.8776 45.3441 33.7399 40.4981 33.5278C40.4605 33.5263 40.4235 33.5174 40.3893 33.5016C40.3551 33.4858 40.3244 33.4634 40.2989 33.4357C40.2733 33.4081 40.2535 33.3756 40.2405 33.3402C40.2275 33.3048 40.2216 33.2672 40.2231 33.2296C40.226 33.1575 40.2558 33.0891 40.3068 33.0381C40.3578 32.9871 40.4261 32.9572 40.4981 32.9543C45.3441 32.7479 50.1882 32.5969 55.0304 32.5013C57.4534 32.4325 59.8764 32.4096 62.2937 32.3752C64.711 32.3408 67.1397 32.3752 69.5628 32.3752L68.8181 33.6654C68.2989 32.7415 67.9935 31.7127 67.9245 30.6549C67.8474 29.5873 68.0302 28.5168 68.4572 27.5355C68.6842 26.9817 69.0335 26.4866 69.4789 26.0874C69.9244 25.6881 70.4544 25.3951 71.0292 25.2303C71.6505 25.0796 72.3026 25.1175 72.9023 25.3392C73.228 25.4557 73.5275 25.6359 73.7831 25.8692C74.0388 26.1025 74.2456 26.3843 74.3916 26.6983C74.4835 26.9074 74.4887 27.1445 74.4059 27.3574C74.365 27.4628 74.3037 27.5591 74.2255 27.6409C74.1474 27.7226 74.054 27.7881 73.9505 27.8336C73.7416 27.9257 73.5048 27.9308 73.2921 27.848C73.0794 27.7652 72.9083 27.6012 72.8163 27.3921C72.6243 26.9385 72.4989 26.4595 72.444 25.97C72.3997 25.4879 72.419 25.0021 72.5013 24.525C72.6662 23.5873 73.0597 22.7049 73.6469 21.956C73.9494 21.5846 74.2978 21.2532 74.6837 20.9697C75.0806 20.6948 75.5096 20.4695 75.9611 20.2988C76.8497 19.9858 77.7979 19.8799 78.7335 19.9892C79.6587 20.0895 80.5512 20.3896 81.3492 20.8688C82.1473 21.3479 82.832 21.9947 83.3561 22.7646C84.3897 24.2759 84.8619 26.1018 84.6908 27.9254C84.6814 28.0378 84.65 28.1471 84.5982 28.2473C84.5464 28.3474 84.4753 28.4363 84.389 28.5087C84.3028 28.5812 84.203 28.6359 84.0956 28.6697C83.9881 28.7034 83.875 28.7155 83.7628 28.7053C83.5608 28.6872 83.3715 28.5987 83.228 28.4551C83.0846 28.3115 82.9961 28.1219 82.9781 27.9197C82.8373 26.5497 82.82 25.1698 82.9265 23.7967C83.0389 22.3168 83.5518 20.8954 84.4101 19.6853C85.3273 18.486 86.5945 17.6023 88.036 17.1564C89.446 16.697 90.9531 16.6237 92.4009 16.9443C93.8182 17.2764 95.142 17.9253 96.2731 18.8423C97.3992 19.73 98.3559 20.814 99.0971 22.042C100.564 24.4906 101.148 27.2029 101.721 29.7833L100.879 29.1066C102.202 29.0665 103.531 29.0722 104.854 29.1066C106.177 29.1411 107.5 29.1697 108.824 29.1984C110.147 29.2271 111.476 29.3131 112.799 29.3876C114.122 29.4622 115.445 29.5654 116.768 29.7087C116.844 29.7087 116.917 29.739 116.971 29.7927C117.025 29.8465 117.055 29.9194 117.055 29.9955C117.055 30.0715 117.025 30.1444 116.971 30.1982C116.917 30.252 116.844 30.2822 116.768 30.2822L116.751 30.2478Z" fill="#717791"/>
<path d="M295.607 73.6852C297.498 73.4099 299.388 73.2723 301.278 73.1748C303.168 73.0774 305.059 73.0315 306.949 73.106L306.107 73.7827C306.514 71.9477 306.938 69.9751 308.009 68.1803C308.537 67.2591 309.244 66.4528 310.088 65.8088C310.932 65.1648 311.896 64.6961 312.923 64.4301C313.999 64.1911 315.118 64.2445 316.166 64.5849C317.243 64.9183 318.19 65.5798 318.875 66.4772C319.512 67.3777 319.894 68.4337 319.981 69.5336C320.059 70.5285 320.046 71.5287 319.94 72.5211C319.94 72.7493 319.85 72.968 319.689 73.1293C319.528 73.2907 319.309 73.3813 319.081 73.3813C318.853 73.3813 318.635 73.2907 318.474 73.1293C318.313 72.968 318.222 72.7493 318.222 72.5211C318.095 71.164 318.446 69.8051 319.213 68.6792C319.613 68.1038 320.128 67.6176 320.725 67.2513C321.327 66.8965 321.996 66.6718 322.69 66.5919C323.396 66.5069 324.111 66.5874 324.781 66.827C325.47 67.0814 326.077 67.5172 326.539 68.0885C326.992 68.6523 327.298 69.3205 327.427 70.0325C327.561 70.7705 327.478 71.5317 327.187 72.2229C327.095 72.4321 326.925 72.5964 326.713 72.6797C326.501 72.763 326.264 72.7586 326.055 72.6674C325.846 72.5761 325.682 72.4055 325.599 72.1931C325.516 71.9807 325.52 71.744 325.611 71.5348C325.728 71.2797 325.895 71.0504 326.102 70.8604C326.308 70.6704 326.55 70.5235 326.814 70.4281C327.288 70.2541 327.802 70.2241 328.292 70.3421C328.734 70.4747 329.14 70.7047 329.481 71.0154C329.822 71.326 330.089 71.7093 330.263 72.1369C330.583 72.8731 330.72 73.6757 330.664 74.4765C330.615 75.2684 330.388 76.039 329.999 76.7301V76.7645L329.254 75.4743C330.973 75.4341 332.691 75.4456 334.438 75.4743C336.185 75.5029 337.875 75.5374 339.628 75.6004C343.065 75.7094 346.542 75.847 349.996 76.0592C350.034 76.0606 350.071 76.0697 350.105 76.0859C350.14 76.1021 350.17 76.1251 350.196 76.1535C350.221 76.1819 350.24 76.2151 350.252 76.2512C350.264 76.2872 350.268 76.3253 350.265 76.3631C350.26 76.4328 350.23 76.4983 350.181 76.5478C350.131 76.5972 350.066 76.6273 349.996 76.6326C346.559 76.8448 343.082 76.9766 339.628 77.0856C337.91 77.1544 336.191 77.1773 334.438 77.2118C332.686 77.2462 331.001 77.2404 329.254 77.2118C329.024 77.2057 328.805 77.1091 328.645 76.9427C328.486 76.7764 328.398 76.5537 328.401 76.323C328.406 76.1826 328.444 76.0454 328.51 75.9215C328.771 75.4596 328.922 74.9435 328.951 74.4134C328.992 73.892 328.906 73.3684 328.699 72.8881C328.631 72.6982 328.524 72.525 328.384 72.3805C328.243 72.236 328.073 72.1236 327.885 72.0509C327.734 72.008 327.573 72.008 327.421 72.0509C327.323 72.0818 327.241 72.1497 327.192 72.2402L325.617 71.5406C325.765 71.147 325.805 70.7212 325.734 70.3069C325.662 69.8926 325.481 69.5049 325.21 69.1838C324.933 68.8572 324.577 68.6065 324.176 68.4551C323.776 68.3036 323.343 68.2564 322.919 68.3179C322.467 68.3669 322.031 68.5138 321.641 68.7485C321.251 68.9832 320.917 69.3 320.662 69.6769C320.124 70.4713 319.877 71.4276 319.963 72.3835H318.245C318.344 71.5 318.357 70.6089 318.285 69.7228C318.233 68.9292 317.968 68.1644 317.517 67.5094C317.016 66.9095 316.358 66.4611 315.616 66.214C314.875 65.9669 314.079 65.931 313.319 66.1102C312.518 66.3283 311.769 66.7024 311.113 67.2112C310.457 67.7199 309.909 68.3532 309.498 69.0748C308.616 70.5371 308.203 72.3204 307.78 74.1554C307.747 74.3386 307.654 74.5054 307.514 74.6284C307.375 74.7513 307.198 74.8232 307.012 74.832H306.943C305.053 74.9066 303.163 74.832 301.272 74.7632C299.382 74.6944 297.492 74.5281 295.601 74.2529C295.565 74.2473 295.53 74.2345 295.498 74.2154C295.467 74.1962 295.439 74.171 295.417 74.1411C295.396 74.1113 295.38 74.0774 295.371 74.0415C295.363 74.0056 295.361 73.9683 295.367 73.9318C295.375 73.8701 295.402 73.8127 295.446 73.7682C295.489 73.7238 295.546 73.6946 295.607 73.6852Z" fill="#717791"/>
<path d="M326.281 227.422C327.142 227.242 328.021 227.167 328.899 227.198C329.776 227.2 330.652 227.254 331.523 227.359C331.647 227.376 331.76 227.442 331.836 227.541C331.912 227.641 331.946 227.767 331.929 227.892C331.916 227.995 331.869 228.092 331.796 228.165C331.722 228.239 331.626 228.286 331.523 228.299C330.652 228.407 329.776 228.461 328.899 228.46C328.021 228.491 327.142 228.416 326.281 228.236C326.228 228.224 326.177 228.201 326.131 228.169C326.086 228.137 326.048 228.097 326.019 228.05C325.989 228.003 325.97 227.95 325.961 227.896C325.952 227.841 325.954 227.785 325.966 227.732C325.985 227.656 326.025 227.587 326.08 227.532C326.136 227.478 326.206 227.44 326.281 227.422Z" fill="#717791"/>
<path d="M86.965 227.444C96.7716 227.266 106.584 227.238 116.396 227.244H145.827L204.696 227.215H263.564H292.995C302.808 227.215 312.614 227.215 322.427 227.381C322.56 227.381 322.688 227.434 322.783 227.529C322.878 227.624 322.931 227.752 322.931 227.886C322.931 228.02 322.878 228.148 322.783 228.243C322.688 228.337 322.56 228.39 322.427 228.39C312.614 228.545 302.808 228.557 292.995 228.562H263.564H204.696L145.827 228.534H116.396C106.584 228.534 96.7716 228.534 86.965 228.333C86.8621 228.33 86.7645 228.287 86.6928 228.213C86.6212 228.139 86.5811 228.04 86.5812 227.937C86.5638 227.879 86.5606 227.817 86.572 227.757C86.5833 227.697 86.6088 227.64 86.6463 227.592C86.6839 227.544 86.7324 227.505 86.7878 227.479C86.8432 227.454 86.9039 227.442 86.965 227.444Z" fill="#717791"/>
<path d="M81.168 227.254C81.2958 227.246 81.424 227.246 81.5518 227.254C81.6148 227.254 81.6836 227.254 81.7466 227.283C81.8115 227.292 81.875 227.31 81.9356 227.335C82.0665 227.389 82.1706 227.493 82.2253 227.624C82.28 227.755 82.2809 227.903 82.2277 228.034C82.1689 228.163 82.0649 228.265 81.9356 228.321C81.875 228.346 81.8115 228.364 81.7466 228.373C81.6826 228.388 81.6174 228.397 81.5518 228.401C81.424 228.41 81.2958 228.41 81.168 228.401C81.0925 228.392 81.0197 228.367 80.9538 228.328C80.888 228.29 80.8305 228.239 80.7846 228.178C80.7387 228.117 80.7054 228.048 80.6867 227.974C80.6679 227.9 80.6641 227.823 80.6754 227.748C80.6919 227.623 80.7492 227.507 80.8382 227.417C80.9273 227.328 81.0432 227.271 81.168 227.254Z" fill="#717791"/>
<path d="M71.7394 227.41C72.3733 227.319 73.0123 227.267 73.6526 227.256C74.2905 227.223 74.93 227.26 75.5601 227.365C75.6655 227.388 75.7598 227.447 75.8274 227.531C75.895 227.616 75.9318 227.721 75.9318 227.829C75.9318 227.937 75.895 228.042 75.8274 228.127C75.7598 228.211 75.6655 228.27 75.5601 228.293C74.9307 228.404 74.2905 228.441 73.6526 228.402C73.0121 228.394 72.3729 228.342 71.7394 228.248C71.6297 228.229 71.5315 228.168 71.4662 228.078C71.4008 227.988 71.3734 227.876 71.39 227.766C71.4033 227.677 71.4442 227.595 71.507 227.531C71.5698 227.467 71.6511 227.425 71.7394 227.41Z" fill="#717791"/>
<path d="M177.573 239.98C180.637 239.802 183.696 239.779 186.738 239.779L195.903 239.745L214.273 239.688H241.831C244.896 239.688 247.955 239.688 250.996 239.86C251.13 239.86 251.258 239.913 251.353 240.007C251.447 240.102 251.5 240.23 251.5 240.364C251.5 240.498 251.447 240.626 251.353 240.721C251.258 240.816 251.13 240.869 250.996 240.869C247.932 241.018 244.873 241.029 241.831 241.041H214.325L195.954 240.983L186.789 240.955C183.725 240.955 180.666 240.955 177.624 240.748C177.53 240.737 177.443 240.691 177.38 240.62C177.317 240.548 177.282 240.457 177.282 240.361C177.282 240.266 177.317 240.174 177.38 240.103C177.443 240.031 177.53 239.986 177.624 239.974L177.573 239.98Z" fill="#717791"/>
<path d="M147.34 239.952C150.479 239.854 153.641 239.814 156.757 239.797C159.873 239.78 163.058 239.797 166.174 239.906C166.235 239.908 166.295 239.922 166.35 239.948C166.406 239.973 166.455 240.009 166.497 240.054C166.538 240.099 166.571 240.151 166.592 240.208C166.613 240.266 166.623 240.326 166.621 240.387C166.615 240.504 166.566 240.615 166.484 240.698C166.401 240.78 166.291 240.829 166.174 240.835C163.035 240.955 159.873 240.961 156.757 240.944C153.641 240.926 150.456 240.886 147.34 240.789C147.23 240.784 147.126 240.737 147.051 240.656C146.976 240.576 146.936 240.469 146.939 240.359C146.94 240.252 146.983 240.15 147.057 240.074C147.132 239.999 147.233 239.955 147.34 239.952Z" fill="#717791"/>
<path d="M252.858 131.814C252.818 132.388 252.789 133.007 252.761 133.604L252.858 131.814Z" fill="#93B9F4"/>
<path d="M132.687 133.448L105.123 67.1939C104.918 66.7052 104.811 66.1805 104.81 65.6503C104.808 65.1201 104.912 64.5948 105.114 64.1048C105.317 63.6149 105.614 63.1699 105.989 62.7956C106.364 62.4213 106.81 62.1251 107.3 61.9242L174.944 33.832C175.432 33.6264 175.955 33.5195 176.485 33.5176C177.014 33.5157 177.539 33.6187 178.028 33.8208C178.517 34.0228 178.962 34.3199 179.336 34.6948C179.71 35.0697 180.007 35.5151 180.208 36.0053L214.09 117.696C214.295 118.184 214.402 118.709 214.403 119.239C214.405 119.769 214.301 120.295 214.099 120.785C213.896 121.275 213.599 121.72 213.224 122.094C212.849 122.468 212.403 122.764 211.913 122.965L159.558 144.727" fill="#F7FAFF"/>
<path d="M132.687 133.448L105.123 67.1939C104.918 66.7052 104.811 66.1805 104.81 65.6503C104.808 65.1201 104.912 64.5948 105.114 64.1048C105.317 63.6149 105.614 63.1699 105.989 62.7956C106.364 62.4213 106.81 62.1251 107.3 61.9242L174.944 33.832C175.432 33.6264 175.955 33.5195 176.485 33.5176C177.014 33.5157 177.539 33.6187 178.028 33.8208C178.517 34.0228 178.962 34.3199 179.336 34.6948C179.71 35.0697 180.007 35.5151 180.208 36.0053L214.09 117.696C214.295 118.184 214.402 118.709 214.403 119.239C214.405 119.769 214.301 120.295 214.099 120.785C213.896 121.275 213.599 121.72 213.224 122.094C212.849 122.468 212.403 122.764 211.913 122.965L159.558 144.727" stroke="#717791" stroke-width="3" stroke-linecap="round" stroke-linejoin="round"/>
<path d="M139.847 152.9L106.767 73.3997L104.699 68.4281L104.441 67.8088L104.31 67.4877L104.172 67.1035C104.015 66.5814 103.946 66.037 103.966 65.4922C104.001 64.3956 104.405 63.343 105.112 62.5046C105.463 62.0859 105.883 61.7309 106.355 61.4552C106.584 61.3237 106.821 61.2068 107.065 61.1054L107.684 60.8474L110.17 59.8152L115.136 57.7509L135.001 49.4936L174.766 32.9731C175.793 32.5881 176.919 32.5597 177.964 32.8925C179.009 33.2253 179.912 33.8999 180.529 34.8081C180.679 35.0362 180.811 35.2759 180.924 35.5249C181.044 35.7772 181.107 35.9492 181.199 36.1671L181.714 37.4115L182.745 39.9001L186.87 49.8433L195.118 69.7298L211.621 109.503L213.683 114.474L214.714 116.963C214.927 117.43 215.083 117.921 215.178 118.425C215.273 118.964 215.273 119.515 215.178 120.054C214.996 121.138 214.453 122.128 213.637 122.863C213.234 123.229 212.773 123.525 212.274 123.741L211.025 124.257L206.059 126.321L186.194 134.584C179.572 137.331 172.962 140.112 166.317 142.824L156.379 146.89C153.062 148.243 149.734 149.579 146.331 150.738C146.214 150.774 146.088 150.766 145.977 150.714C145.866 150.662 145.778 150.57 145.731 150.457C145.684 150.344 145.68 150.217 145.721 150.101C145.763 149.986 145.845 149.89 145.953 149.832C149.173 148.238 152.466 146.821 155.771 145.422L165.687 141.248C172.291 138.455 178.925 135.731 185.546 132.973L205.412 124.716L210.378 122.651L211.615 122.135C211.939 121.994 212.237 121.801 212.497 121.562C213.026 121.084 213.377 120.441 213.494 119.738C213.56 119.392 213.56 119.036 213.494 118.689C213.42 118.313 213.301 117.947 213.139 117.599L212.108 115.116L210.046 110.139L193.543 70.3663L185.289 50.4626L181.164 40.5194L180.133 38.0308L179.618 36.7864C179.538 36.5972 179.44 36.3449 179.366 36.213C179.292 36.0529 179.208 35.8977 179.114 35.7485C178.71 35.1627 178.124 34.7272 177.447 34.5099C176.77 34.2886 176.038 34.3069 175.373 34.5615L135.666 51.0647L115.8 59.3221L110.834 61.3864L108.348 62.4186L107.729 62.6766C107.559 62.7449 107.394 62.8274 107.237 62.9232C106.929 63.0985 106.656 63.3277 106.429 63.5998C105.971 64.1448 105.707 64.8266 105.679 65.538C105.67 65.8909 105.716 66.2431 105.816 66.5817L105.908 66.8282C105.937 66.9143 105.988 67.0347 106.028 67.1322L106.286 67.7515L108.354 72.7231L141.434 152.24C141.515 152.45 141.512 152.683 141.423 152.889C141.335 153.096 141.17 153.26 140.963 153.346C140.755 153.432 140.522 153.434 140.314 153.35C140.105 153.267 139.938 153.105 139.847 152.9Z" fill="#717791"/>
<path d="M183.576 90.2747C180.139 91.9434 176.702 93.4343 173.168 94.8621L162.639 99.203C159.134 100.654 155.611 102.07 152.094 103.475C148.577 104.88 145.043 106.273 141.514 107.673C141.424 107.71 141.322 107.71 141.232 107.672C141.142 107.634 141.07 107.562 141.033 107.472C140.996 107.381 140.996 107.28 141.033 107.189C141.071 107.099 141.143 107.027 141.233 106.99C144.716 105.482 148.182 103.939 151.67 102.454C155.159 100.969 158.636 99.4553 162.135 97.9873L172.624 93.5719C176.124 92.104 179.641 90.7048 183.227 89.4433C183.337 89.3969 183.462 89.3965 183.573 89.4422C183.685 89.4879 183.773 89.576 183.819 89.687C183.866 89.798 183.866 89.9229 183.82 90.0342C183.775 90.1455 183.687 90.2341 183.576 90.2805V90.2747Z" fill="#A3ACD6"/>
<path d="M162.525 86.6917C160.491 87.7582 158.412 88.7216 156.316 89.6276C154.219 90.5336 152.083 91.3479 149.969 92.2367L146.79 93.5212L143.593 94.7713C141.463 95.6085 139.32 96.4055 137.172 97.1911C137.091 97.2147 137.004 97.2076 136.928 97.1711C136.852 97.1347 136.792 97.0714 136.759 96.9935C136.727 96.9155 136.724 96.8282 136.751 96.7484C136.779 96.6685 136.835 96.6016 136.909 96.5603C138.982 95.5855 141.065 94.6298 143.158 93.6932L146.297 92.3227L149.448 90.9752C151.556 90.0864 153.652 89.1689 155.749 88.3202C157.845 87.4715 160.022 86.6802 162.21 85.9864C162.303 85.9476 162.407 85.9472 162.5 85.9854C162.593 86.0236 162.667 86.0972 162.705 86.1899C162.744 86.2827 162.744 86.3871 162.706 86.4801C162.668 86.5731 162.595 86.6472 162.502 86.6859L162.525 86.6917Z" fill="#A3ACD6"/>
<path d="M179.234 79.8047C177.57 80.7852 175.819 81.6105 174.004 82.2704C172.217 82.9815 170.413 83.6467 168.574 84.2373C168.518 84.2588 168.458 84.2685 168.399 84.2658C168.339 84.2631 168.28 84.2482 168.226 84.2218C168.173 84.1954 168.125 84.1582 168.086 84.1125C168.047 84.0669 168.018 84.0137 168.001 83.9563C167.969 83.8591 167.973 83.7538 168.012 83.6592C168.051 83.5646 168.122 83.487 168.213 83.4402C169.931 82.5457 171.65 81.72 173.443 80.9745C175.189 80.1547 177.007 79.4963 178.873 79.0077C178.986 78.9836 179.104 79.005 179.202 79.0672C179.299 79.1295 179.368 79.2275 179.394 79.3402C179.417 79.4248 179.414 79.5144 179.386 79.5973C179.357 79.6801 179.304 79.7524 179.234 79.8047Z" fill="#A3ACD6"/>
<path d="M137.722 84.6553C137.013 85.2028 136.244 85.6683 135.431 86.0429C135.037 86.2432 134.629 86.4156 134.211 86.559C133.783 86.7072 133.339 86.7997 132.887 86.8343C132.826 86.8389 132.763 86.8311 132.705 86.8113C132.646 86.7915 132.592 86.7601 132.545 86.7189C132.499 86.6778 132.461 86.6277 132.434 86.5716C132.407 86.5156 132.392 86.4548 132.389 86.3927C132.384 86.3212 132.396 86.2494 132.423 86.1829C132.449 86.1164 132.491 86.0568 132.544 86.0085C132.894 85.7164 133.279 85.468 133.689 85.2688C134.089 85.0747 134.5 84.9061 134.921 84.7642C135.761 84.451 136.633 84.2337 137.522 84.1162C137.561 84.1106 137.601 84.113 137.64 84.1234C137.679 84.1337 137.715 84.1517 137.746 84.1763C137.778 84.2009 137.804 84.2316 137.824 84.2666C137.843 84.3016 137.855 84.3402 137.86 84.38C137.861 84.4337 137.85 84.4871 137.826 84.5352C137.802 84.5833 137.766 84.6246 137.722 84.6553Z" fill="#A3ACD6"/>
<path d="M174.858 69.2594C172.372 70.3604 169.891 71.4843 167.411 72.5681L159.919 75.808L152.369 79.0077C149.866 80.08 147.351 81.1064 144.745 81.9379C144.63 81.9718 144.506 81.962 144.398 81.9103C144.289 81.8586 144.204 81.7687 144.158 81.6578C144.112 81.5469 144.108 81.4228 144.148 81.3094C144.187 81.196 144.267 81.1013 144.372 81.0433C146.795 79.7818 149.304 78.721 151.819 77.706L159.386 74.6324L166.97 71.6105C169.496 70.6013 172.039 69.6379 174.577 68.6459C174.659 68.6156 174.75 68.6184 174.83 68.6537C174.91 68.6889 174.973 68.754 175.007 68.8351C175.039 68.9117 175.042 68.9977 175.015 69.0763C174.987 69.1549 174.931 69.2202 174.858 69.2594Z" fill="#A3ACD6"/>
<path d="M188.027 101.003C185.535 102.098 183.055 103.222 180.58 104.306L173.088 107.551L165.544 110.745C163.046 111.818 160.526 112.85 157.925 113.676C157.81 113.709 157.687 113.7 157.578 113.648C157.47 113.596 157.385 113.506 157.338 113.395C157.292 113.285 157.289 113.16 157.328 113.047C157.368 112.934 157.448 112.839 157.553 112.781C159.976 111.519 162.479 110.459 165 109.444L172.566 106.376L180.151 103.348C182.677 102.345 185.226 101.376 187.763 100.389C187.803 100.373 187.846 100.365 187.89 100.365C187.933 100.366 187.976 100.375 188.016 100.393C188.055 100.411 188.091 100.436 188.12 100.468C188.15 100.5 188.173 100.538 188.187 100.578C188.22 100.656 188.222 100.744 188.192 100.823C188.163 100.902 188.103 100.967 188.027 101.003Z" fill="#A3ACD6"/>
<path d="M152.844 115.627C151.916 116.2 150.96 116.676 149.98 117.146C149.499 117.381 149.012 117.605 148.52 117.823C148.038 118.087 147.499 118.229 146.95 118.236C146.81 118.231 146.677 118.172 146.58 118.07C146.484 117.968 146.431 117.832 146.435 117.691C146.441 117.562 146.492 117.438 146.578 117.341C146.973 116.96 147.455 116.678 147.981 116.521C148.48 116.326 148.984 116.143 149.493 115.948C150.507 115.592 151.533 115.266 152.581 114.996C152.667 114.975 152.757 114.988 152.833 115.033C152.909 115.078 152.965 115.151 152.988 115.237C153.011 115.308 153.01 115.386 152.984 115.457C152.958 115.528 152.909 115.588 152.844 115.627Z" fill="#A3ACD6"/>
<path d="M170.516 58.7823C167.016 60.3477 163.51 61.9017 159.993 63.4155C156.476 64.9294 152.959 66.4547 149.425 67.9399C145.89 69.4251 142.373 70.9446 138.828 72.3954C137.052 73.1179 135.272 73.8251 133.489 74.5171C131.706 75.209 129.909 75.8818 128.099 76.5355C128 76.5655 127.893 76.5576 127.8 76.5134C127.706 76.4692 127.632 76.3918 127.592 76.2962C127.552 76.2006 127.549 76.0936 127.584 75.9959C127.618 75.8982 127.687 75.8167 127.778 75.7672C129.516 74.9376 131.259 74.1386 133.008 73.3702C134.761 72.5846 136.519 71.8277 138.283 71.0765C141.812 69.5856 145.369 68.1635 148.915 66.707C152.461 65.2505 156.018 63.8399 159.575 62.412C163.132 60.9842 166.707 59.5908 170.281 58.2146C170.357 58.1834 170.442 58.1837 170.518 58.2154C170.594 58.2471 170.654 58.3077 170.685 58.3837C170.716 58.4598 170.716 58.5451 170.684 58.6209C170.652 58.6967 170.592 58.7568 170.516 58.788V58.7823Z" fill="#A3ACD6"/>
<path d="M244.363 82.8896L228.611 152.905C228.496 153.423 228.281 153.913 227.976 154.347C227.672 154.781 227.284 155.15 226.836 155.433C226.388 155.716 225.889 155.907 225.366 155.996C224.844 156.085 224.31 156.069 223.793 155.95L152.369 139.762C151.852 139.647 151.363 139.431 150.931 139.125C150.498 138.82 150.13 138.432 149.847 137.984C149.565 137.536 149.374 137.036 149.286 136.513C149.198 135.991 149.214 135.456 149.333 134.939L168.826 48.6732C168.94 48.1554 169.156 47.6654 169.461 47.2315C169.765 46.7976 170.153 46.4284 170.601 46.1453C171.048 45.8622 171.548 45.6707 172.07 45.582C172.593 45.4932 173.127 45.509 173.643 45.6283L228.932 58.1577" fill="white"/>
<path d="M228.932 58.1582L244.432 82.5862" stroke="#717791" stroke-width="3" stroke-linecap="round" stroke-linejoin="round"/>
<path d="M245.205 83.0786L237.031 119.405L232.941 137.571L230.902 146.654L229.877 151.196L229.625 152.343C229.533 152.727 229.476 153.065 229.327 153.547C229.032 154.448 228.482 155.244 227.744 155.838C227.005 156.431 226.11 156.797 225.168 156.89C224.7 156.938 224.227 156.917 223.765 156.827C223.329 156.741 222.991 156.655 222.619 156.569L218.082 155.543L209.015 153.49L190.874 149.378L154.591 141.155L152.3 140.645C151.381 140.461 150.534 140.017 149.86 139.366C149.174 138.712 148.696 137.871 148.485 136.946C148.376 136.487 148.337 136.013 148.371 135.541C148.381 135.306 148.412 135.072 148.462 134.842C148.502 134.624 148.548 134.458 148.588 134.268L150.65 125.168L154.752 107.008L162.966 70.6869L167.073 52.5265L167.583 50.2328L167.841 49.0859L167.967 48.5125C168.02 48.2875 168.085 48.0655 168.161 47.8473C168.486 46.9574 169.062 46.1806 169.818 45.6108C170.574 45.041 171.479 44.7025 172.423 44.6361C172.894 44.612 173.365 44.6486 173.827 44.7451L174.972 45.0031L177.263 45.5135L181.8 46.5399C187.843 47.9161 193.898 49.2579 199.935 50.6686L208.963 52.8132C211.976 53.5242 214.995 54.2525 217.962 55.17C218.079 55.2082 218.177 55.2886 218.238 55.3956C218.298 55.5025 218.317 55.6282 218.289 55.7481C218.262 55.868 218.191 55.9733 218.09 56.0435C217.989 56.1137 217.866 56.1437 217.744 56.1276C214.674 55.6746 211.638 55.0323 208.608 54.3729L199.529 52.3602C193.474 51.0355 187.431 49.6307 181.382 48.2659L176.851 47.2395L174.56 46.7234L173.414 46.4711C173.115 46.4083 172.809 46.3852 172.503 46.4023C171.892 46.4459 171.307 46.6649 170.817 47.0331C170.328 47.4013 169.955 47.903 169.742 48.4781C169.689 48.6282 169.645 48.7814 169.611 48.9368L169.485 49.5102L169.227 50.6571L168.711 52.9508L164.604 71.1112L156.396 107.432L152.323 125.581L150.272 134.658C150.232 134.842 150.181 135.048 150.152 135.232C150.119 135.381 150.098 135.532 150.089 135.685C150.068 135.989 150.093 136.294 150.164 136.591C150.304 137.19 150.614 137.736 151.057 138.162C151.273 138.377 151.523 138.555 151.796 138.69C152.075 138.837 152.374 138.941 152.684 138.999L154.975 139.515L191.257 147.732L209.398 151.844L218.466 153.903L223.003 154.929C223.369 155.009 223.788 155.112 224.108 155.17C224.408 155.231 224.715 155.246 225.019 155.216C225.631 155.156 226.211 154.919 226.69 154.534C227.17 154.149 227.526 153.633 227.717 153.048C227.797 152.796 227.883 152.366 227.969 151.999L228.227 150.852L229.246 146.31L231.291 137.227L235.376 119.061L243.55 82.7346C243.574 82.6242 243.62 82.5198 243.685 82.4272C243.749 82.3346 243.832 82.2557 243.927 82.195C244.022 82.1343 244.128 82.093 244.24 82.0734C244.351 82.0538 244.465 82.0563 244.575 82.0809C244.787 82.1365 244.969 82.2705 245.086 82.4556C245.203 82.6407 245.246 82.8634 245.205 83.0786Z" fill="#717791"/>
<path d="M229.768 58.3462L225.277 78.2441L224.624 77.2062C226.411 77.6477 228.193 78.1122 229.98 78.571C230.868 78.8003 231.761 79.024 232.649 79.2763C233.537 79.5286 234.419 79.7923 235.313 80.016C235.434 80.0473 235.539 80.1244 235.605 80.2312C235.672 80.3381 235.694 80.4664 235.668 80.5894C235.636 80.7115 235.56 80.817 235.453 80.8842C235.347 80.9513 235.218 80.9751 235.095 80.9507C234.196 80.7672 233.279 80.6353 232.374 80.469C231.469 80.3027 230.564 80.1307 229.659 79.9529C227.855 79.5974 226.044 79.2533 224.246 78.8749C224.136 78.8523 224.032 78.8083 223.939 78.7454C223.846 78.6824 223.766 78.6018 223.705 78.5081C223.643 78.4144 223.6 78.3094 223.579 78.1991C223.558 78.0889 223.559 77.9756 223.581 77.8656L228.084 57.9735C228.102 57.8573 228.144 57.7461 228.207 57.6468C228.27 57.5475 228.353 57.4622 228.45 57.3962C228.548 57.3302 228.657 57.2848 228.773 57.263C228.888 57.2412 229.007 57.2433 229.122 57.2692C229.236 57.2952 229.344 57.3444 229.439 57.4138C229.534 57.4832 229.614 57.5714 229.673 57.6729C229.733 57.7744 229.771 57.887 229.785 58.0038C229.799 58.1206 229.79 58.2391 229.756 58.3519L229.768 58.3462Z" fill="#717791"/>
<path d="M177.911 88.68C181.657 89.2936 185.357 90.0964 189.063 90.945L200.147 93.514C203.842 94.3569 207.531 95.2343 211.22 96.1288C214.909 97.0234 218.592 97.9236 222.275 98.8239C222.322 98.8347 222.367 98.8547 222.406 98.8829C222.445 98.911 222.478 98.9467 222.503 98.9879C222.528 99.029 222.545 99.0748 222.552 99.1224C222.559 99.1701 222.556 99.2187 222.545 99.2655C222.523 99.3582 222.466 99.4388 222.385 99.4901C222.305 99.5415 222.208 99.5596 222.115 99.5407C218.403 98.7608 214.668 98.0096 210.979 97.2069C207.29 96.4041 203.533 95.6242 199.855 94.7927L188.748 92.3213C185.048 91.4955 181.359 90.601 177.71 89.5573C177.604 89.5199 177.516 89.445 177.462 89.3466C177.407 89.2482 177.391 89.1333 177.416 89.0237C177.441 88.9141 177.505 88.8174 177.596 88.7519C177.687 88.6864 177.799 88.6568 177.911 88.6685V88.68Z" fill="#A3ACD6"/>
<path d="M193.039 103.791C195.33 104.095 197.564 104.514 199.804 104.989C202.043 105.465 204.26 106.01 206.489 106.526L209.822 107.318L213.15 108.149C215.373 108.722 217.584 109.296 219.789 109.869C219.877 109.889 219.954 109.943 220.002 110.019C220.051 110.096 220.067 110.188 220.047 110.276C220.027 110.365 219.973 110.441 219.897 110.49C219.821 110.538 219.729 110.554 219.64 110.535C217.389 110.133 215.138 109.703 212.904 109.244L209.542 108.556L206.185 107.834C203.957 107.341 201.717 106.876 199.494 106.343C197.272 105.809 195.061 105.196 192.873 104.508C192.797 104.47 192.736 104.407 192.7 104.33C192.664 104.253 192.655 104.167 192.674 104.084C192.693 104.001 192.739 103.927 192.806 103.874C192.872 103.821 192.954 103.792 193.039 103.791Z" fill="#A3ACD6"/>
<path d="M175.408 99.7424C177.333 99.9035 179.239 100.243 181.101 100.757C182.969 101.205 184.83 101.709 186.669 102.294C186.768 102.331 186.85 102.402 186.901 102.495C186.951 102.587 186.966 102.695 186.943 102.798C186.92 102.901 186.86 102.993 186.775 103.055C186.69 103.117 186.585 103.146 186.48 103.137C184.567 102.873 182.671 102.524 180.792 102.122C178.891 101.781 177.026 101.267 175.219 100.585C175.112 100.54 175.028 100.454 174.984 100.347C174.94 100.24 174.94 100.119 174.984 100.012C175.019 99.9296 175.079 99.86 175.154 99.8119C175.23 99.7638 175.318 99.7396 175.408 99.7424Z" fill="#A3ACD6"/>
<path d="M212.091 119.8C212.987 119.766 213.884 119.831 214.766 119.995C215.205 120.061 215.64 120.157 216.066 120.281C216.499 120.41 216.914 120.591 217.303 120.82C217.409 120.888 217.484 120.994 217.512 121.117C217.54 121.239 217.519 121.367 217.452 121.474C217.414 121.534 217.362 121.585 217.302 121.622C217.242 121.66 217.174 121.684 217.103 121.692C216.654 121.733 216.201 121.715 215.757 121.64C215.319 121.572 214.887 121.474 214.462 121.348C213.596 121.114 212.758 120.786 211.965 120.367C211.929 120.349 211.898 120.323 211.872 120.292C211.847 120.261 211.827 120.226 211.816 120.187C211.804 120.149 211.8 120.109 211.804 120.069C211.808 120.029 211.82 119.99 211.839 119.955C211.865 119.91 211.902 119.873 211.946 119.846C211.99 119.819 212.039 119.803 212.091 119.8Z" fill="#A3ACD6"/>
<path d="M172.893 110.878C175.557 111.423 178.232 111.939 180.912 112.501L188.897 114.186L196.877 115.907C199.54 116.48 202.187 117.094 204.793 117.925C204.909 117.963 205.006 118.043 205.066 118.149C205.126 118.255 205.144 118.379 205.116 118.498C205.089 118.617 205.018 118.721 204.918 118.79C204.818 118.859 204.696 118.888 204.575 118.871C201.872 118.499 199.214 117.914 196.556 117.283L188.605 115.414L180.666 113.539C178.02 112.896 175.385 112.214 172.744 111.554C172.659 111.533 172.586 111.478 172.541 111.403C172.496 111.328 172.483 111.238 172.503 111.153C172.519 111.065 172.568 110.987 172.641 110.935C172.714 110.883 172.805 110.863 172.893 110.878Z" fill="#A3ACD6"/>
<path d="M180.471 77.3558C183.135 77.9005 185.81 78.4166 188.491 78.9786L196.476 80.6989L204.455 82.4191C207.119 82.9926 209.765 83.6119 212.371 84.4376C212.487 84.4754 212.584 84.5552 212.644 84.6611C212.704 84.7671 212.722 84.8917 212.695 85.0103C212.667 85.1289 212.597 85.233 212.497 85.3021C212.396 85.3712 212.274 85.4004 212.154 85.3838C209.45 85.011 206.792 84.4261 204.134 83.7954L196.189 81.926L188.25 80.005C185.604 79.3628 182.969 78.6804 180.328 78.021C180.243 77.9993 180.17 77.945 180.125 77.8698C180.08 77.7946 180.067 77.7047 180.087 77.6196C180.105 77.5347 180.155 77.4601 180.227 77.411C180.298 77.3619 180.386 77.3421 180.471 77.3558Z" fill="#A3ACD6"/>
<path d="M217.624 85.7737C218.701 85.8597 219.772 86.0088 220.826 86.1866C221.359 86.2726 221.886 86.3701 222.413 86.4733C222.958 86.5391 223.478 86.7358 223.931 87.0467C223.987 87.0875 224.035 87.1393 224.071 87.1988C224.107 87.2584 224.131 87.3246 224.141 87.3936C224.151 87.4625 224.147 87.5328 224.13 87.6003C224.113 87.6678 224.082 87.7311 224.04 87.7864C223.962 87.8925 223.847 87.966 223.719 87.9929C223.175 88.0792 222.618 88.0299 222.098 87.8495C221.582 87.7176 221.061 87.58 220.545 87.4309C219.514 87.1327 218.489 86.8059 217.475 86.4217C217.403 86.3901 217.344 86.3342 217.309 86.2638C217.273 86.1933 217.264 86.1127 217.281 86.0359C217.299 85.9591 217.343 85.8908 217.405 85.8429C217.468 85.7951 217.545 85.7706 217.624 85.7737Z" fill="#A3ACD6"/>
<path d="M170.39 121.939C172.773 122.375 175.15 122.828 177.521 123.315C179.893 123.803 182.264 124.279 184.624 124.8C186.984 125.322 189.361 125.798 191.71 126.354C194.058 126.911 196.413 127.501 198.727 128.247C198.828 128.278 198.913 128.346 198.966 128.437C199.018 128.528 199.035 128.636 199.012 128.739C198.988 128.842 198.927 128.932 198.841 128.992C198.754 129.051 198.648 129.076 198.544 129.061C196.138 128.717 193.761 128.258 191.401 127.742C189.041 127.226 186.686 126.641 184.332 126.091C181.978 125.54 179.629 124.944 177.281 124.37C174.932 123.797 172.595 123.172 170.258 122.535C170.18 122.514 170.114 122.463 170.074 122.393C170.033 122.324 170.021 122.241 170.04 122.163C170.062 122.089 170.109 122.026 170.173 121.985C170.237 121.944 170.314 121.928 170.39 121.939Z" fill="#A3ACD6"/>
<path opacity="0.2" d="M161.602 78.5717L152.339 80.391C151.088 80.6367 150.272 81.8512 150.518 83.1036L164.661 155.27C164.907 156.522 166.12 157.338 167.371 157.093L176.634 155.273C177.885 155.028 178.701 153.813 178.455 152.561L164.312 80.3945C164.066 79.1421 162.853 78.326 161.602 78.5717Z" fill="#3F72BA"/>
<path d="M83.3791 191.984L65.301 101.159C65.1859 100.579 65.186 99.982 65.3013 99.4022C65.4166 98.8224 65.6448 98.271 65.973 97.7795C66.3012 97.288 66.7229 96.8661 67.214 96.5378C67.7051 96.2094 68.256 95.9812 68.8353 95.866L153.114 79.0589C153.649 78.952 154.2 78.9517 154.735 79.0582C155.271 79.1646 155.78 79.3757 156.233 79.6792C156.687 79.9828 157.077 80.3729 157.38 80.8273C157.683 81.2817 157.894 81.7915 158 82.3274L180.523 195.539L87.8241 213.998L86.352 206.715" fill="white"/>
<path d="M82.8406 192.099C82.0768 188.979 81.3608 185.854 80.6925 182.723L79.65 178.032L78.6533 173.33C77.29 167.063 76.0699 160.772 74.9128 154.47C73.7557 148.168 72.4783 141.855 71.2296 135.599L67.4891 116.739L65.6217 107.306L64.6823 102.592L64.4475 101.411C64.3551 100.947 64.3205 100.473 64.3444 100C64.3936 99.0374 64.7016 98.1054 65.2359 97.303C65.7703 96.5007 66.5111 95.8576 67.3803 95.4417C67.8084 95.2364 68.2607 95.0861 68.7264 94.9945L69.872 94.7593L74.5863 93.8247L84.0034 91.9496L121.683 84.4606L140.523 80.7047L149.94 78.8181L152.294 78.3479L152.867 78.2332C153.576 78.0837 154.307 78.0837 155.015 78.2332C155.961 78.4531 156.822 78.9429 157.495 79.6432C158.169 80.3434 158.624 81.2241 158.807 82.1784L166.34 119.893L173.867 157.601L175.746 167.028C176.399 170.165 177.023 173.307 177.722 176.438L179.784 185.831C180.431 188.968 181.107 192.098 181.72 195.247C181.784 195.574 181.716 195.914 181.53 196.191C181.344 196.469 181.056 196.661 180.729 196.726L157.553 201.342C149.831 202.871 142.104 204.4 134.371 205.93L111.212 210.448C107.348 211.213 103.479 211.954 99.6069 212.673L87.9673 214.732C87.7783 214.767 87.583 214.727 87.4233 214.62C87.2637 214.512 87.1525 214.347 87.1138 214.158L86.4665 210.5C86.2603 209.278 86.0312 208.057 85.8536 206.83C85.8344 206.694 85.8679 206.555 85.9473 206.443C86.0266 206.331 86.1459 206.253 86.2806 206.226C86.4153 206.199 86.5552 206.224 86.6718 206.297C86.7884 206.37 86.8727 206.485 86.9076 206.618C87.2169 207.816 87.4804 209.032 87.7668 210.236L88.5917 213.86L87.7038 213.287L99.2403 210.723C103.097 209.901 106.954 209.103 110.811 208.326L133.936 203.567C141.65 201.981 149.373 200.425 157.106 198.899L180.277 194.272L179.291 195.757C178.65 192.615 178.077 189.449 177.47 186.318L175.78 176.851C175.207 173.692 174.6 170.543 174.004 167.401L172.131 157.974L164.65 120.254L157.163 82.5339C157.045 81.9042 156.747 81.3224 156.304 80.8592C155.862 80.3961 155.295 80.0714 154.672 79.9248C154.363 79.8496 154.044 79.8225 153.727 79.8445C153.565 79.8546 153.404 79.8757 153.245 79.9076L152.673 80.0223L150.318 80.4925L140.895 82.3619L122.061 86.1178L84.3872 93.6526L74.9701 95.5392L70.2616 96.4796L69.1159 96.7147C68.7951 96.7796 68.4835 96.8836 68.188 97.0244C67.6047 97.3038 67.1078 97.7359 66.7498 98.275C66.3918 98.814 66.1861 99.44 66.1545 100.086C66.1342 100.413 66.1593 100.741 66.2289 101.061L66.4638 102.243L67.4032 106.956L69.2419 116.406L73.0053 135.26C74.2598 141.568 75.4971 147.836 76.8317 154.103C78.1664 160.371 79.4552 166.65 80.5951 172.958L81.4715 177.683L82.3079 182.419C82.8769 185.573 83.4115 188.734 83.9118 191.904C83.924 191.974 83.9219 192.047 83.9056 192.117C83.8894 192.187 83.8593 192.253 83.8171 192.312C83.775 192.37 83.7216 192.419 83.6601 192.456C83.5986 192.494 83.5303 192.518 83.4592 192.529C83.3216 192.544 83.1831 192.509 83.0694 192.43C82.9556 192.351 82.8744 192.233 82.8406 192.099Z" fill="#717791"/>
<path d="M91.3985 112.053L95.918 114.478L94.0449 114.851L100.455 106.123C100.518 106.029 100.598 105.948 100.692 105.886C100.786 105.823 100.892 105.779 101.003 105.757C101.114 105.735 101.228 105.735 101.339 105.757C101.45 105.779 101.555 105.823 101.649 105.885C101.743 105.948 101.824 106.029 101.887 106.123C101.95 106.217 101.993 106.323 102.015 106.434C102.037 106.545 102.037 106.659 102.015 106.77C101.993 106.881 101.95 106.987 101.887 107.081L96.2904 116.353V116.411C96.2063 116.552 96.0947 116.676 95.9623 116.774C95.8298 116.872 95.6792 116.943 95.5191 116.982C95.359 117.021 95.1928 117.027 95.0301 117.001C94.8675 116.975 94.7117 116.917 94.5719 116.829C94.5198 116.802 94.4716 116.767 94.4287 116.726L90.4591 113.48C90.2871 113.347 90.1719 113.154 90.1368 112.939C90.1016 112.724 90.1492 112.504 90.2698 112.323C90.3904 112.142 90.5751 112.013 90.7867 111.963C90.9983 111.913 91.2211 111.945 91.41 112.053H91.3985Z" fill="#9FC3FD"/>
<path d="M107.116 112.879C107.192 114.139 107.049 115.402 106.693 116.612C106.508 117.223 106.274 117.817 105.994 118.39C105.851 118.676 105.702 118.963 105.53 119.238C105.358 119.514 105.152 119.76 104.957 120.012C104.137 121.008 103.171 121.874 102.093 122.581C101.008 123.276 99.8156 123.785 98.5644 124.09C97.3146 124.403 96.0224 124.511 94.738 124.411C93.4555 124.293 92.1992 123.976 91.0146 123.47C89.8344 122.955 88.7453 122.252 87.7897 121.389C86.8267 120.531 86.017 119.515 85.3953 118.384C84.1333 116.117 83.6541 113.497 84.032 110.929C84.2041 109.652 84.5915 108.413 85.1777 107.265C85.7742 106.124 86.5475 105.085 87.4689 104.186C89.3326 102.398 91.7276 101.267 94.2912 100.963C95.5457 100.782 96.8242 100.863 98.0458 101.202C99.2674 101.54 100.406 102.129 101.388 102.93C101.435 102.977 101.462 103.041 101.462 103.108C101.462 103.174 101.435 103.238 101.388 103.286C101.356 103.324 101.313 103.351 101.265 103.365C101.217 103.378 101.166 103.376 101.119 103.36C98.9917 102.574 96.7155 102.274 94.4573 102.483C92.2527 102.776 90.2045 103.783 88.6252 105.351C87.0459 106.918 86.0223 108.96 85.7104 111.165C85.3831 113.356 85.7857 115.595 86.856 117.535C87.3842 118.503 88.0761 119.373 88.901 120.104C89.7122 120.847 90.6414 121.45 91.6505 121.888C92.6623 122.319 93.7347 122.592 94.8296 122.696C95.9272 122.785 97.032 122.694 98.1004 122.427C100.256 121.904 102.176 120.674 103.554 118.934C103.857 118.476 104.235 118.069 104.527 117.598C104.831 117.131 105.097 116.64 105.324 116.13C105.786 115.091 106.085 113.987 106.211 112.856C106.211 112.744 106.256 112.636 106.336 112.556C106.415 112.476 106.523 112.432 106.635 112.432C106.748 112.432 106.856 112.476 106.935 112.556C107.015 112.636 107.059 112.744 107.059 112.856L107.116 112.879Z" fill="#717791"/>
<path d="M114.981 103.298C116.598 102.58 118.3 102.073 120.045 101.79C121.763 101.446 123.482 101.107 125.2 100.792C126.919 100.477 128.637 100.167 130.384 99.8861C132.131 99.6051 133.821 99.3127 135.591 99.1005C135.677 99.0901 135.763 99.0967 135.846 99.1199C135.929 99.1431 136.006 99.1825 136.074 99.2358C136.142 99.2891 136.198 99.3552 136.24 99.4304C136.282 99.5056 136.309 99.5884 136.319 99.6739C136.339 99.8293 136.302 99.9868 136.214 100.117C136.127 100.247 135.995 100.34 135.843 100.379C134.125 100.838 132.441 101.251 130.734 101.658C129.027 102.065 127.297 102.444 125.578 102.805C123.86 103.166 122.142 103.522 120.423 103.866C118.703 104.285 116.935 104.478 115.165 104.439C115.031 104.441 114.9 104.395 114.796 104.311C114.692 104.226 114.621 104.108 114.595 103.976C114.57 103.845 114.591 103.708 114.655 103.591C114.719 103.473 114.822 103.382 114.947 103.332L114.981 103.298Z" fill="#717791"/>
<path d="M116.534 111.097C118.701 110.395 120.913 109.843 123.155 109.445L129.829 108.132C132.051 107.69 134.279 107.295 136.508 106.876C138.736 106.458 140.97 106.073 143.204 105.729C143.371 105.696 143.545 105.73 143.686 105.825C143.828 105.919 143.927 106.067 143.96 106.234C143.993 106.401 143.959 106.575 143.865 106.717C143.77 106.859 143.623 106.957 143.456 106.991C141.245 107.499 139.034 107.994 136.823 108.476C134.6 108.94 132.389 109.434 130.167 109.875L123.505 111.223C121.287 111.712 119.038 112.048 116.774 112.226C116.643 112.225 116.516 112.178 116.415 112.094C116.314 112.01 116.245 111.893 116.219 111.764C116.194 111.635 116.213 111.501 116.275 111.385C116.336 111.268 116.436 111.177 116.557 111.125L116.534 111.097Z" fill="#717791"/>
<path d="M139.847 98.3423C140.61 98.062 141.396 97.8491 142.196 97.7058L144.579 97.2298C146.171 96.9144 147.764 96.6277 149.362 96.3582C149.529 96.3247 149.702 96.3591 149.844 96.4537C149.986 96.5484 150.084 96.6955 150.118 96.8628C150.151 97.0301 150.117 97.2038 150.022 97.3458C149.928 97.4877 149.781 97.5863 149.614 97.6197C148.033 98.002 146.45 98.3461 144.865 98.6519L142.476 99.1221C141.684 99.3012 140.877 99.4087 140.065 99.4432C139.913 99.4432 139.767 99.3828 139.66 99.2753C139.552 99.1677 139.492 99.0219 139.492 98.8698C139.493 98.7566 139.527 98.6461 139.59 98.5522C139.653 98.4583 139.743 98.3853 139.847 98.3423Z" fill="#717791"/>
<path d="M98.1806 146.121L102.7 148.552L100.821 148.925L107.237 140.198C107.3 140.104 107.38 140.023 107.474 139.96C107.568 139.897 107.674 139.853 107.785 139.831C107.896 139.809 108.01 139.809 108.121 139.831C108.232 139.853 108.337 139.897 108.431 139.96C108.525 140.023 108.606 140.103 108.669 140.197C108.732 140.292 108.775 140.397 108.797 140.508C108.819 140.619 108.819 140.733 108.797 140.845C108.775 140.956 108.732 141.061 108.669 141.155L103.072 150.428L103.038 150.485C102.955 150.627 102.843 150.751 102.711 150.85C102.578 150.948 102.428 151.019 102.267 151.058C102.107 151.097 101.941 151.104 101.778 151.077C101.615 151.051 101.459 150.992 101.32 150.904C101.269 150.874 101.221 150.839 101.176 150.8L97.2011 147.555C97.0342 147.419 96.924 147.225 96.892 147.012C96.8601 146.799 96.9086 146.582 97.0282 146.402C97.1477 146.223 97.3297 146.095 97.5386 146.043C97.7475 145.991 97.9682 146.019 98.1577 146.121H98.1806Z" fill="#9FC3FD"/>
<path d="M113.882 146.947C113.959 148.207 113.813 149.471 113.452 150.68C113.268 151.293 113.035 151.89 112.753 152.464C112.61 152.75 112.461 153.037 112.295 153.312C112.129 153.588 111.917 153.834 111.722 154.087C110.903 155.082 109.937 155.946 108.858 156.65C107.774 157.348 106.582 157.86 105.329 158.164C104.08 158.476 102.787 158.585 101.503 158.485C100.22 158.369 98.9638 158.051 97.7797 157.544C96.5966 157.032 95.5067 156.327 94.5547 155.457C93.5892 154.601 92.779 153.585 92.1604 152.452C90.8984 150.185 90.4173 147.566 90.7913 144.998C90.9671 143.723 91.3543 142.486 91.937 141.339C92.5335 140.198 93.3068 139.159 94.2282 138.26C96.0897 136.472 98.4829 135.341 101.045 135.037C102.301 134.856 103.58 134.938 104.803 135.277C106.026 135.617 107.165 136.207 108.148 137.01C108.172 137.033 108.191 137.061 108.204 137.091C108.217 137.122 108.223 137.154 108.223 137.188C108.223 137.221 108.217 137.254 108.204 137.284C108.191 137.315 108.172 137.342 108.148 137.365C108.115 137.404 108.071 137.432 108.022 137.445C107.973 137.459 107.921 137.457 107.873 137.44C105.745 136.654 103.469 136.354 101.211 136.563C99.0052 136.855 96.9558 137.862 95.3753 139.429C93.7949 140.997 92.7704 143.039 92.4582 145.244C92.1448 147.44 92.5593 149.678 93.6382 151.615C94.1664 152.58 94.8561 153.447 95.6774 154.178C96.4915 154.922 97.4224 155.527 98.4327 155.967C99.4445 156.399 100.517 156.672 101.612 156.776C102.709 156.864 103.814 156.773 104.883 156.506C107.038 155.983 108.958 154.754 110.336 153.014C110.639 152.555 111.012 152.148 111.31 151.678C111.611 151.21 111.875 150.719 112.1 150.21C112.567 149.172 112.868 148.067 112.994 146.936C112.994 146.823 113.038 146.715 113.118 146.636C113.197 146.556 113.305 146.512 113.418 146.512C113.53 146.512 113.638 146.556 113.717 146.636C113.797 146.715 113.841 146.823 113.841 146.936L113.882 146.947Z" fill="#717791"/>
<path d="M121.763 137.371C123.379 136.652 125.081 136.145 126.827 135.863C128.546 135.519 130.264 135.18 131.982 134.865C133.701 134.55 135.419 134.24 137.172 133.959C138.925 133.678 140.609 133.386 142.379 133.173C142.464 133.162 142.551 133.168 142.634 133.191C142.717 133.214 142.794 133.254 142.861 133.307C142.929 133.361 142.984 133.427 143.026 133.503C143.067 133.578 143.092 133.661 143.101 133.747C143.123 133.902 143.087 134.059 143 134.189C142.914 134.319 142.782 134.413 142.631 134.452C140.913 134.911 139.229 135.324 137.522 135.731C135.815 136.138 134.085 136.511 132.366 136.878C130.648 137.245 128.929 137.6 127.211 137.939C125.491 138.361 123.723 138.553 121.952 138.512C121.877 138.508 121.802 138.49 121.734 138.457C121.665 138.424 121.604 138.379 121.553 138.322C121.503 138.265 121.464 138.199 121.439 138.128C121.414 138.056 121.404 137.98 121.408 137.904C121.408 137.79 121.441 137.678 121.504 137.583C121.568 137.488 121.658 137.414 121.763 137.371Z" fill="#717791"/>
<path d="M123.316 145.168C125.475 144.468 127.68 143.916 129.915 143.517L136.582 142.209C138.805 141.768 141.039 141.372 143.267 140.954C145.495 140.535 147.723 140.151 149.963 139.778C150.13 139.745 150.304 139.779 150.446 139.874C150.587 139.968 150.686 140.115 150.719 140.283C150.753 140.45 150.718 140.624 150.624 140.766C150.529 140.908 150.382 141.006 150.215 141.04C148.004 141.55 145.793 142.049 143.576 142.519C141.359 142.989 139.148 143.471 136.903 143.93L130.241 145.277C128.023 145.764 125.774 146.1 123.511 146.281C123.379 146.279 123.252 146.232 123.151 146.148C123.05 146.064 122.981 145.948 122.955 145.819C122.93 145.69 122.949 145.556 123.011 145.439C123.072 145.323 123.172 145.231 123.293 145.18L123.316 145.168Z" fill="#717791"/>
<path d="M146.641 132.416C147.405 132.134 148.193 131.921 148.995 131.78L151.378 131.304C152.965 130.989 154.563 130.696 156.161 130.432C156.328 130.399 156.502 130.433 156.643 130.528C156.785 130.623 156.884 130.77 156.917 130.937C156.951 131.104 156.916 131.278 156.822 131.42C156.727 131.562 156.58 131.66 156.413 131.694C154.832 132.076 153.247 132.42 151.659 132.726L149.276 133.196C148.481 133.373 147.672 133.48 146.858 133.517C146.707 133.517 146.561 133.457 146.453 133.349C146.346 133.242 146.286 133.096 146.286 132.944C146.286 132.831 146.32 132.72 146.383 132.626C146.447 132.533 146.536 132.459 146.641 132.416Z" fill="#717791"/>
<path d="M104.963 180.193L109.482 182.619L107.603 182.997L114.019 174.27C114.152 174.097 114.345 173.982 114.56 173.947C114.774 173.912 114.994 173.959 115.175 174.08C115.356 174.201 115.485 174.386 115.535 174.598C115.585 174.809 115.553 175.032 115.445 175.221L109.855 184.499L109.82 184.551C109.737 184.693 109.625 184.817 109.493 184.916C109.361 185.015 109.21 185.086 109.05 185.125C108.89 185.165 108.724 185.172 108.561 185.146C108.398 185.121 108.242 185.062 108.102 184.975L107.959 184.872L103.989 181.627C103.822 181.491 103.712 181.297 103.68 181.084C103.648 180.871 103.696 180.654 103.816 180.474C103.936 180.295 104.118 180.167 104.326 180.115C104.535 180.063 104.756 180.091 104.946 180.193H104.963Z" fill="#9FC3FD"/>
<path d="M120.664 181.019C120.735 182.278 120.59 183.541 120.234 184.752C120.049 185.364 119.815 185.96 119.535 186.535C119.392 186.822 119.243 187.108 119.077 187.378C118.911 187.647 118.699 187.9 118.504 188.158C117.685 189.153 116.719 190.017 115.64 190.721C114.557 191.417 113.367 191.928 112.117 192.235C110.867 192.548 109.575 192.656 108.291 192.556C107.007 192.441 105.751 192.121 104.568 191.61C103.383 191.102 102.293 190.399 101.343 189.528C100.375 188.673 99.5633 187.656 98.9425 186.523C97.6797 184.257 97.2004 181.636 97.5792 179.069C97.7559 177.792 98.143 176.554 98.7249 175.405C99.3223 174.264 100.096 173.225 101.016 172.325C102.88 170.541 105.272 169.412 107.833 169.108C109.088 168.926 110.368 169.007 111.59 169.346C112.813 169.684 113.952 170.273 114.936 171.075C114.983 171.124 115.009 171.188 115.009 171.256C115.009 171.324 114.983 171.388 114.936 171.437C114.903 171.474 114.86 171.5 114.812 171.514C114.764 171.527 114.714 171.526 114.666 171.511C112.54 170.722 110.263 170.422 108.004 170.634C105.799 170.926 103.749 171.933 102.169 173.5C100.589 175.068 99.564 177.11 99.2518 179.315C98.9385 181.511 99.353 183.749 100.432 185.686C100.96 186.651 101.65 187.518 102.471 188.249C103.284 188.993 104.215 189.596 105.226 190.033C106.236 190.47 107.309 190.743 108.405 190.841C109.503 190.933 110.608 190.841 111.676 190.572C113.831 190.053 115.749 188.825 117.124 187.085C117.433 186.627 117.805 186.22 118.097 185.749C118.403 185.283 118.669 184.792 118.894 184.281C119.357 183.242 119.658 182.138 119.787 181.007C119.792 180.948 119.809 180.89 119.837 180.837C119.866 180.785 119.906 180.739 119.953 180.703C120.001 180.667 120.056 180.642 120.114 180.629C120.173 180.616 120.233 180.616 120.291 180.629C120.389 180.64 120.479 180.686 120.547 180.757C120.615 180.828 120.656 180.92 120.664 181.019Z" fill="#717791"/>
<path d="M128.54 171.455C130.156 170.731 131.86 170.224 133.609 169.947C135.328 169.603 137.046 169.264 138.765 168.949C140.483 168.634 142.201 168.324 143.92 168.043C145.638 167.762 147.391 167.47 149.133 167.257C149.218 167.246 149.304 167.252 149.387 167.275C149.47 167.298 149.547 167.338 149.615 167.391C149.682 167.445 149.738 167.511 149.779 167.587C149.82 167.662 149.846 167.745 149.854 167.831C149.876 167.986 149.84 168.143 149.754 168.273C149.667 168.403 149.536 168.497 149.385 168.536C147.666 168.989 145.948 169.408 144.269 169.815C142.591 170.222 140.832 170.595 139.114 170.962C137.396 171.329 135.677 171.684 133.959 172.023C132.241 172.445 130.474 172.638 128.706 172.596C128.627 172.596 128.549 172.58 128.477 172.549C128.405 172.518 128.34 172.472 128.286 172.414C128.232 172.357 128.191 172.288 128.165 172.214C128.138 172.14 128.128 172.061 128.133 171.982C128.142 171.864 128.186 171.752 128.258 171.658C128.33 171.564 128.428 171.494 128.54 171.455Z" fill="#717791"/>
<path d="M130.092 179.241C132.253 178.539 134.46 177.987 136.697 177.59L143.364 176.277C145.587 175.835 147.821 175.439 150.043 175.015C152.266 174.591 154.506 174.218 156.745 173.868C156.828 173.854 156.913 173.857 156.996 173.876C157.078 173.895 157.155 173.93 157.224 173.979C157.292 174.028 157.351 174.09 157.395 174.161C157.44 174.233 157.47 174.313 157.484 174.396C157.507 174.557 157.47 174.722 157.379 174.858C157.288 174.993 157.15 175.09 156.992 175.13C154.788 175.638 152.577 176.131 150.358 176.609C148.142 177.079 145.93 177.567 143.708 178.014L137.046 179.356C134.829 179.848 132.58 180.185 130.315 180.365C130.184 180.365 130.056 180.319 129.954 180.235C129.852 180.152 129.782 180.035 129.755 179.906C129.729 179.776 129.748 179.642 129.81 179.525C129.871 179.408 129.971 179.316 130.092 179.264V179.241Z" fill="#717791"/>
<path d="M153.406 166.483C154.171 166.205 154.959 165.994 155.76 165.852L158.137 165.371C159.73 165.061 161.322 164.768 162.92 164.505C163.087 164.471 163.261 164.506 163.403 164.6C163.544 164.695 163.643 164.842 163.676 165.009C163.71 165.177 163.675 165.35 163.581 165.492C163.486 165.634 163.339 165.733 163.172 165.766C161.597 166.133 160.01 166.477 158.424 166.798L156.041 167.269C155.246 167.446 154.437 167.551 153.623 167.584C153.471 167.584 153.326 167.524 153.218 167.416C153.111 167.308 153.051 167.163 153.051 167.011C153.051 166.897 153.085 166.787 153.148 166.693C153.212 166.599 153.301 166.526 153.406 166.483Z" fill="#717791"/>
<path d="M84.7767 196.984C84.9795 197.279 85.118 197.613 85.1834 197.965C85.2749 198.312 85.2749 198.678 85.1834 199.026C85.1517 199.128 85.081 199.213 84.9866 199.264C84.8923 199.314 84.7819 199.326 84.6793 199.295C84.6036 199.27 84.5362 199.224 84.4846 199.163C84.2646 198.876 84.1242 198.536 84.0779 198.177C84.0037 197.827 84.0037 197.466 84.0779 197.116C84.1036 197.015 84.1679 196.929 84.2569 196.875C84.3459 196.821 84.4523 196.805 84.5533 196.829C84.6439 196.852 84.7232 196.907 84.7767 196.984Z" fill="#717791"/>
<path d="M277.426 110.47L285.302 112.351C285.863 112.485 286.392 112.728 286.859 113.066C287.326 113.404 287.721 113.831 288.023 114.323C288.325 114.815 288.527 115.361 288.617 115.931C288.708 116.501 288.685 117.083 288.55 117.644L264.876 216.956C264.604 218.088 263.895 219.066 262.903 219.676C261.912 220.285 260.72 220.476 259.589 220.207L178.776 200.9C177.645 200.628 176.668 199.918 176.059 198.926C175.45 197.933 175.259 196.74 175.528 195.607L199.208 96.2954C199.479 95.1624 200.187 94.1834 201.179 93.5736C202.171 92.9639 203.363 92.7734 204.495 93.044L256.931 105.573" fill="white"/>
<path d="M277.518 110.097C279.471 110.361 281.396 110.728 283.315 111.147L284.752 111.473L285.468 111.64C286.165 111.81 286.819 112.123 287.389 112.56C287.959 112.996 288.432 113.546 288.779 114.174C289.346 115.184 289.548 116.359 289.352 117.5C289.3 117.804 289.243 118.028 289.186 118.269L289.014 118.985L288.676 120.413L287.313 126.147L281.825 149.09L270.942 194.907L268.215 206.376L266.852 212.11L266.17 214.977L265.826 216.411L265.655 217.127C265.587 217.406 265.497 217.678 265.385 217.942C264.935 219.015 264.136 219.905 263.116 220.466C262.097 221.027 260.919 221.227 259.772 221.032C259.468 220.981 259.239 220.923 258.999 220.866L258.288 220.694L256.856 220.356L253.992 219.673L242.536 216.938L196.739 206.014L185.283 203.285L179.555 201.914C179.074 201.794 178.633 201.714 178.048 201.519C177.499 201.326 176.989 201.036 176.542 200.664C175.631 199.929 174.996 198.906 174.743 197.763C174.616 197.199 174.587 196.617 174.657 196.042C174.743 195.429 174.869 194.993 174.978 194.511L175.66 191.644L177.029 185.91L179.755 174.441L190.673 128.596L196.126 105.659L197.495 99.9247L198.177 97.0575C198.297 96.5701 198.372 96.1343 198.566 95.5437C198.867 94.716 199.37 93.9768 200.029 93.3938C200.689 92.8108 201.484 92.4026 202.341 92.2064C202.904 92.0764 203.486 92.0434 204.06 92.1089C204.678 92.1949 205.114 92.3268 205.595 92.4357L211.323 93.8005L234.236 99.2652C241.854 101.129 249.541 102.74 257.045 105.103C257.16 105.141 257.256 105.222 257.313 105.328C257.371 105.435 257.386 105.559 257.355 105.676C257.319 105.784 257.247 105.876 257.151 105.936C257.054 105.996 256.94 106.019 256.828 106.003C249.066 104.719 241.482 102.677 233.84 100.894L210.928 95.4175L205.2 94.0471C204.724 93.9381 204.214 93.8005 203.859 93.7546C203.465 93.7085 203.066 93.7317 202.679 93.8234C201.897 93.9936 201.196 94.4291 200.697 95.0563C200.448 95.3643 200.254 95.7136 200.125 96.0885C200.01 96.4268 199.895 96.9601 199.781 97.4245L199.099 100.292L197.73 106.026L192.254 128.963L181.313 174.803L178.575 186.271L177.206 192.006L176.525 194.873C176.416 195.343 176.278 195.859 176.232 196.22C176.183 196.618 176.202 197.022 176.29 197.413C176.466 198.205 176.904 198.914 177.533 199.426C177.845 199.671 178.195 199.865 178.57 199.999C178.913 200.114 179.44 200.228 179.91 200.343L185.638 201.714L197.094 204.449L242.874 215.413L254.33 218.154L257.194 218.836L258.626 219.18L259.342 219.352C259.583 219.41 259.829 219.467 260.012 219.496C260.816 219.633 261.642 219.494 262.357 219.102C263.071 218.709 263.632 218.086 263.948 217.334C264.025 217.147 264.09 216.956 264.142 216.76L264.309 216.049L264.652 214.616L265.34 211.749L266.703 206.014L269.441 194.546L280.387 148.712L285.858 125.775L287.227 120.04L287.571 118.607L287.742 117.89C287.8 117.649 287.857 117.403 287.886 117.213C288.027 116.403 287.89 115.568 287.497 114.845C287.104 114.123 286.477 113.555 285.72 113.234C285.534 113.155 285.343 113.09 285.148 113.039L284.432 112.861L283.005 112.5C281.109 112.007 279.219 111.462 277.357 110.82C277.262 110.791 277.18 110.727 277.131 110.64C277.081 110.554 277.066 110.451 277.09 110.354C277.113 110.257 277.173 110.173 277.257 110.118C277.341 110.064 277.442 110.044 277.541 110.063L277.518 110.097Z" fill="#717791"/>
<path d="M273.789 149.705L264.4 134.326L240.273 148.329L232.746 138.225L221.588 144.63L210.235 127.686L197.81 135.014L195.072 142.153L196.922 144.298L268.931 162.166L271.051 160.405L272.998 152.635L273.789 149.705Z" fill="#B8D4FF"/>
<path d="M204.299 104.17L195.372 141.624C194.998 143.195 195.966 144.773 197.536 145.147L267.885 161.951C269.454 162.326 271.03 161.356 271.404 159.785L280.331 122.331C280.706 120.76 279.737 119.182 278.168 118.807L207.819 102.004C206.249 101.629 204.674 102.599 204.299 104.17Z" stroke="#717791" stroke-width="2" stroke-linecap="round" stroke-linejoin="round"/>
<path d="M197.736 131.797L208.31 125.289L219.297 143.197" stroke="#717791" stroke-width="2" stroke-linecap="round" stroke-linejoin="round"/>
<path d="M217.343 140.014L217.819 140.782" stroke="#717791" stroke-width="2" stroke-linecap="round" stroke-linejoin="round"/>
<path d="M210.917 148.351L231.635 135.604L238.114 146.155" stroke="#717791" stroke-width="2" stroke-linecap="round" stroke-linejoin="round"/>
<path d="M234.768 148.34C236.813 146.563 239.173 145.301 241.425 143.85L248.224 139.596C252.806 136.792 257.326 133.982 261.914 131.235C262.043 131.158 262.197 131.135 262.342 131.17C262.488 131.206 262.614 131.297 262.693 131.424L273.972 149.774C274.023 149.838 274.059 149.913 274.078 149.992C274.098 150.072 274.1 150.155 274.085 150.235C274.07 150.316 274.037 150.392 273.99 150.459C273.943 150.526 273.882 150.582 273.811 150.624C273.741 150.665 273.662 150.691 273.58 150.699C273.499 150.708 273.417 150.698 273.339 150.672C273.261 150.646 273.19 150.603 273.131 150.547C273.071 150.491 273.024 150.423 272.992 150.347L261.719 131.998L262.504 132.187C257.99 135.054 253.431 137.847 248.877 140.651L242.003 144.808C239.712 146.161 237.501 147.675 234.986 148.707C234.958 148.719 234.928 148.726 234.897 148.726C234.866 148.726 234.836 148.72 234.808 148.708C234.779 148.697 234.754 148.679 234.732 148.658C234.711 148.636 234.694 148.61 234.683 148.581C234.672 148.537 234.675 148.491 234.69 148.448C234.705 148.405 234.732 148.368 234.768 148.34Z" fill="#717791"/>
<path d="M223.667 127.783C227.691 127.783 230.954 124.518 230.954 120.489C230.954 116.461 227.691 113.195 223.667 113.195C219.643 113.195 216.381 116.461 216.381 120.489C216.381 124.518 219.643 127.783 223.667 127.783Z" fill="#FDD1BE" stroke="#717791" stroke-width="2" stroke-linecap="round" stroke-linejoin="round"/>
<path d="M197.266 166.335C202.622 167.367 207.926 168.629 213.231 169.89L229.126 173.749L245.005 177.649L260.866 181.628C260.961 181.651 261.043 181.711 261.094 181.794C261.145 181.877 261.161 181.978 261.138 182.073C261.115 182.168 261.056 182.25 260.973 182.301C260.889 182.352 260.789 182.368 260.694 182.345L244.747 178.727L228.817 175.028L212.898 171.278C207.6 170.005 202.301 168.732 197.054 167.229C196.996 167.213 196.941 167.185 196.893 167.147C196.846 167.109 196.806 167.062 196.777 167.009C196.747 166.955 196.729 166.897 196.723 166.836C196.716 166.776 196.722 166.714 196.739 166.656C196.774 166.548 196.846 166.456 196.943 166.397C197.04 166.338 197.155 166.316 197.266 166.335Z" fill="#A3ACD6"/>
<path d="M220.408 181.284C222.031 181.567 223.646 181.878 225.254 182.219C226.864 182.545 228.468 182.895 230.071 183.257C233.273 183.996 236.464 184.799 239.655 185.55L244.443 186.732L249.221 187.947C252.406 188.754 255.583 189.593 258.752 190.465C258.796 190.476 258.837 190.496 258.872 190.523C258.908 190.55 258.938 190.584 258.96 190.623C258.983 190.662 258.997 190.705 259.003 190.75C259.008 190.795 259.005 190.84 258.993 190.883C258.97 190.966 258.916 191.037 258.843 191.082C258.769 191.127 258.682 191.142 258.598 191.124C255.378 190.466 252.165 189.778 248.957 189.06L244.146 187.987L239.34 186.869C236.143 186.118 232.936 185.395 229.745 184.604C228.152 184.222 226.562 183.805 224.973 183.354C223.387 182.935 221.806 182.477 220.23 181.995C220.135 181.966 220.055 181.9 220.008 181.812C219.96 181.724 219.95 181.621 219.978 181.525C220.01 181.441 220.071 181.37 220.15 181.326C220.228 181.282 220.32 181.267 220.408 181.284Z" fill="#A3ACD6"/>
<path d="M195.153 175.194C197.897 175.576 200.613 176.133 203.287 176.862C204.627 177.195 205.963 177.545 207.296 177.912C208.631 178.267 209.966 178.651 211.306 179.058C211.417 179.085 211.513 179.155 211.572 179.252C211.632 179.349 211.65 179.466 211.624 179.577C211.597 179.688 211.528 179.784 211.43 179.844C211.333 179.904 211.216 179.922 211.105 179.896C209.742 179.655 208.385 179.397 207.027 179.11C205.669 178.823 204.323 178.537 202.971 178.233C200.254 177.674 197.576 176.942 194.952 176.042C194.897 176.022 194.847 175.991 194.805 175.951C194.762 175.911 194.728 175.862 194.705 175.809C194.681 175.755 194.669 175.698 194.668 175.639C194.667 175.581 194.678 175.523 194.7 175.469C194.736 175.38 194.799 175.305 194.88 175.256C194.962 175.206 195.058 175.184 195.153 175.194Z" fill="#A3ACD6"/>
<path d="M249.215 197.592C250.494 197.659 251.765 197.826 253.018 198.091C253.643 198.217 254.267 198.349 254.874 198.532C255.493 198.704 256.095 198.933 256.673 199.215C256.781 199.271 256.862 199.367 256.9 199.483C256.937 199.599 256.928 199.725 256.873 199.834C256.836 199.91 256.778 199.974 256.706 200.018C256.634 200.063 256.551 200.087 256.467 200.086C255.824 200.075 255.184 200.008 254.553 199.886C253.923 199.771 253.31 199.61 252.698 199.438C251.46 199.11 250.252 198.682 249.083 198.16C249.047 198.145 249.014 198.123 248.987 198.095C248.96 198.067 248.938 198.033 248.925 197.997C248.911 197.96 248.904 197.921 248.906 197.882C248.908 197.843 248.917 197.805 248.934 197.77C248.958 197.716 248.997 197.67 249.047 197.638C249.097 197.606 249.156 197.59 249.215 197.592Z" fill="#A3ACD6"/>
<path d="M193.039 184.127L204.495 186.673L215.951 189.282L227.379 191.943C231.188 192.82 234.992 193.749 238.738 194.884C238.855 194.921 238.954 195.001 239.015 195.108C239.076 195.215 239.094 195.342 239.066 195.461C239.037 195.581 238.965 195.686 238.863 195.754C238.76 195.823 238.636 195.85 238.515 195.831C234.654 195.148 230.85 194.254 227.058 193.313L215.659 190.521L204.277 187.653L192.907 184.746C192.831 184.718 192.767 184.663 192.729 184.591C192.691 184.519 192.68 184.435 192.699 184.356C192.718 184.277 192.766 184.208 192.832 184.161C192.899 184.115 192.981 184.094 193.062 184.104L193.039 184.127Z" fill="#A3ACD6"/>
<path d="M199.42 157.297L210.876 159.843L222.333 162.452L233.76 165.113C237.575 165.99 241.373 166.919 245.125 168.055C245.186 168.073 245.243 168.103 245.293 168.144C245.343 168.184 245.384 168.234 245.414 168.291C245.445 168.347 245.463 168.409 245.47 168.473C245.476 168.537 245.47 168.601 245.451 168.662C245.414 168.78 245.335 168.879 245.23 168.941C245.124 169.004 244.999 169.025 244.879 169.001C241.018 168.318 237.209 167.424 233.422 166.483L222.029 163.691L210.641 160.824L199.277 157.916C199.192 157.897 199.118 157.844 199.072 157.77C199.026 157.695 199.011 157.606 199.031 157.521C199.05 157.436 199.103 157.362 199.177 157.316C199.251 157.269 199.341 157.254 199.426 157.274L199.42 157.297Z" fill="#A3ACD6"/>
<path d="M252.675 170.021C253.442 170.125 254.21 170.245 254.966 170.377C255.722 170.509 256.49 170.647 257.257 170.796C258.025 170.945 258.77 171.105 259.549 171.266C260.319 171.391 261.063 171.647 261.748 172.023C261.806 172.056 261.856 172.101 261.896 172.154C261.936 172.208 261.965 172.268 261.981 172.333C261.998 172.397 262.001 172.464 261.992 172.53C261.982 172.596 261.96 172.659 261.926 172.717C261.882 172.787 261.823 172.846 261.752 172.889C261.681 172.932 261.602 172.957 261.519 172.963C260.743 172.986 259.968 172.878 259.228 172.642C258.464 172.447 257.719 172.246 256.994 172.04C256.249 171.834 255.516 171.604 254.777 171.386C254.038 171.168 253.299 170.922 252.572 170.664C252.53 170.65 252.491 170.628 252.458 170.599C252.424 170.571 252.397 170.535 252.378 170.496C252.359 170.456 252.348 170.413 252.346 170.369C252.343 170.325 252.35 170.281 252.365 170.239C252.389 170.176 252.431 170.121 252.486 170.082C252.541 170.043 252.607 170.022 252.675 170.021Z" fill="#A3ACD6"/>
<path d="M190.914 192.986C194.316 193.689 197.715 194.421 201.11 195.182C204.507 195.933 207.898 196.69 211.283 197.476C214.668 198.261 218.065 199.018 221.439 199.85C223.129 200.263 224.813 200.693 226.491 201.152C228.17 201.61 229.848 202.058 231.515 202.562C231.61 202.598 231.689 202.667 231.737 202.757C231.785 202.846 231.799 202.951 231.776 203.05C231.752 203.149 231.694 203.236 231.611 203.295C231.528 203.354 231.427 203.381 231.326 203.371C229.607 203.067 227.889 202.728 226.205 202.361C224.521 201.994 222.802 201.628 221.113 201.215C217.721 200.423 214.353 199.563 210.979 198.743C207.606 197.923 204.232 197.063 200.864 196.197C197.495 195.331 194.127 194.477 190.77 193.542C190.71 193.511 190.662 193.46 190.634 193.397C190.606 193.335 190.6 193.265 190.616 193.199C190.633 193.133 190.671 193.074 190.725 193.032C190.779 192.99 190.845 192.968 190.914 192.969V192.986Z" fill="#A3ACD6"/>
<path d="M262.991 106.406L263.455 106.457C263.541 106.467 263.625 106.493 263.701 106.535C263.777 106.576 263.844 106.632 263.898 106.7C263.952 106.768 263.993 106.845 264.017 106.929C264.041 107.012 264.049 107.099 264.039 107.185C264.03 107.272 264.004 107.355 263.962 107.431C263.92 107.507 263.864 107.574 263.797 107.629C263.729 107.683 263.652 107.723 263.568 107.748C263.485 107.772 263.398 107.78 263.312 107.77C263.256 107.767 263.202 107.753 263.152 107.73L262.716 107.57C262.64 107.546 262.569 107.506 262.509 107.453C262.448 107.4 262.4 107.335 262.367 107.262C262.333 107.189 262.315 107.109 262.314 107.029C262.313 106.949 262.329 106.869 262.361 106.795C262.408 106.67 262.496 106.564 262.61 106.493C262.724 106.423 262.858 106.392 262.991 106.406Z" fill="#717791"/>
<path opacity="0.2" d="M108.783 214.198L108.136 141.883C108.136 139.211 109.935 135.902 112.604 135.902H122.096C122.58 135.902 123.045 135.709 123.388 135.366C123.73 135.023 123.923 134.558 123.923 134.073V129.772C123.922 129.366 124.002 128.963 124.156 128.588C124.311 128.212 124.539 127.871 124.825 127.583C125.112 127.295 125.453 127.067 125.828 126.912C126.203 126.756 126.605 126.676 127.01 126.676H158.893C159.299 126.676 159.701 126.756 160.076 126.912C160.451 127.067 160.792 127.295 161.079 127.583C161.365 127.871 161.593 128.212 161.748 128.588C161.902 128.963 161.982 129.366 161.981 129.772V134.073C161.981 134.315 162.029 134.554 162.122 134.777C162.215 135 162.351 135.202 162.522 135.373C162.694 135.543 162.897 135.677 163.121 135.768C163.344 135.859 163.584 135.904 163.825 135.902H231.727C232.362 135.901 232.992 136.026 233.579 136.269C234.166 136.512 234.7 136.868 235.149 137.318C235.599 137.767 235.955 138.301 236.199 138.889C236.442 139.476 236.567 140.106 236.567 140.742V220.265L227.144 219.514L148.789 157.692L106.75 218.608L108.783 214.198Z" fill="#3F72BA"/>
<path d="M231.251 155.399L232.345 215.139L251.575 219.514L249.799 224.405L241.568 227.232H106.446L105.759 150.072C105.777 148.123 106.567 146.26 107.956 144.894C109.345 143.527 111.218 142.769 113.165 142.784H120.188V133.322H158.235V142.784H222.699C227.958 142.784 231.343 142.451 231.675 153.346C231.727 155.009 231.251 153.61 231.251 155.399Z" fill="#E5EEFD"/>
<path d="M105.828 225.081C105.421 205.585 105.553 186.088 105.547 166.552V151.918V147.801V147.273C105.59 146.924 105.659 146.579 105.753 146.241C106.057 145.223 106.644 144.313 107.447 143.618C108.25 142.923 109.234 142.472 110.284 142.319C110.456 142.287 110.631 142.27 110.806 142.267C110.983 142.267 111.155 142.267 111.298 142.267H118.172C118.273 142.278 118.375 142.278 118.476 142.267C118.655 142.228 118.823 142.146 118.962 142.026C119.103 141.908 119.211 141.756 119.277 141.585C119.31 141.5 119.333 141.411 119.346 141.321C119.346 141.275 119.346 141.235 119.346 141.178V135.902C119.364 134.951 119.729 134.04 120.372 133.339C120.888 132.784 121.558 132.397 122.296 132.227C122.484 132.181 122.676 132.15 122.869 132.135H123.15H135.259H149.877H154.46C154.775 132.135 155.033 132.135 155.439 132.135C156.19 132.205 156.902 132.499 157.484 132.978C158.065 133.457 158.491 134.098 158.71 134.818C158.814 135.178 158.868 135.551 158.87 135.925V141.172C158.868 141.22 158.868 141.268 158.87 141.315C158.895 141.501 158.968 141.677 159.082 141.826C159.194 141.98 159.344 142.102 159.518 142.181C159.601 142.222 159.69 142.249 159.781 142.261C159.892 142.276 160.003 142.276 160.113 142.261H171.077H185.695H214.909H225.867C226.188 142.261 226.44 142.261 226.812 142.261C227.156 142.275 227.498 142.323 227.832 142.405C228.845 142.643 229.769 143.168 230.492 143.917C231.215 144.667 231.708 145.609 231.91 146.631C231.971 146.968 232.004 147.309 232.008 147.652C232.008 147.979 232.008 148.271 232.008 148.581L231.967 150.41L231.882 154.063C231.853 155.284 231.819 156.505 231.687 157.721C231.684 157.756 231.674 157.789 231.658 157.82C231.642 157.85 231.62 157.877 231.593 157.899C231.567 157.921 231.536 157.938 231.503 157.947C231.469 157.957 231.435 157.96 231.4 157.956C231.341 157.949 231.285 157.922 231.242 157.879C231.2 157.837 231.173 157.781 231.166 157.721C231.039 156.505 231.005 155.284 230.977 154.063L230.891 150.41L230.85 148.581V147.675C230.841 147.407 230.808 147.14 230.753 146.878C230.519 145.837 229.906 144.922 229.035 144.309C228.6 144.008 228.112 143.792 227.597 143.672C227.339 143.612 227.076 143.577 226.812 143.569C226.56 143.569 226.239 143.569 225.924 143.569H214.943H185.73H171.112H160.125C159.933 143.573 159.741 143.56 159.552 143.529C159.343 143.495 159.141 143.432 158.951 143.34C158.566 143.163 158.231 142.893 157.977 142.554C157.721 142.22 157.557 141.824 157.501 141.407C157.493 141.302 157.493 141.197 157.501 141.092V135.822C157.499 135.585 157.465 135.35 157.398 135.122C157.26 134.672 156.991 134.273 156.625 133.975C156.259 133.676 155.813 133.49 155.342 133.442C155.136 133.442 154.769 133.442 154.494 133.442H149.912H135.293H123.155H122.978C122.391 133.485 121.844 133.752 121.448 134.188C121.126 134.529 120.916 134.961 120.847 135.426C120.83 135.542 120.818 135.659 120.813 135.776V141.023C120.818 141.128 120.818 141.233 120.813 141.338C120.792 141.551 120.742 141.759 120.664 141.958C120.511 142.361 120.258 142.718 119.929 142.997C119.601 143.276 119.207 143.467 118.785 143.552C118.682 143.552 118.579 143.586 118.47 143.592H118.189H111.315H110.903C110.772 143.596 110.642 143.61 110.513 143.632C109.482 143.79 108.549 144.333 107.901 145.152C107.581 145.557 107.342 146.02 107.197 146.516C107.125 146.764 107.073 147.017 107.042 147.273V147.657V151.769V166.403C107.042 185.899 107.168 205.424 106.761 224.932C106.761 225.059 106.711 225.18 106.622 225.269C106.533 225.358 106.412 225.408 106.286 225.408C106.16 225.408 106.039 225.358 105.95 225.269C105.861 225.18 105.811 225.059 105.811 224.932L105.828 225.081Z" fill="#717791"/>
<path d="M253.024 218.476C253.038 219.391 252.866 220.3 252.52 221.148C252.365 221.559 252.183 221.959 251.976 222.346C251.86 222.556 251.732 222.759 251.592 222.954L251.185 223.459C249.775 225.107 247.931 226.327 245.863 226.978C243.794 227.63 241.585 227.687 239.486 227.143C237.387 226.599 235.482 225.477 233.989 223.903C232.496 222.329 231.474 220.367 231.039 218.24C230.874 217.398 230.795 216.541 230.805 215.683V208.446V189.128C230.765 185.905 230.805 182.682 230.902 179.465C230.999 176.248 231.085 173.02 231.228 169.803C231.233 169.707 231.275 169.616 231.346 169.551C231.417 169.485 231.51 169.45 231.607 169.453C231.697 169.459 231.783 169.497 231.848 169.562C231.912 169.626 231.951 169.712 231.956 169.803C232.093 173.02 232.208 176.243 232.277 179.465C232.345 182.688 232.414 185.905 232.374 189.128V208.446V215.694C232.362 216.449 232.429 217.202 232.575 217.942C232.948 219.784 233.83 221.484 235.121 222.849C236.412 224.213 238.059 225.188 239.876 225.662C241.692 226.135 243.605 226.089 245.397 225.529C247.189 224.968 248.788 223.915 250.011 222.49L250.361 222.054C250.457 221.923 250.543 221.785 250.618 221.641C250.793 221.32 250.945 220.986 251.071 220.643C251.338 219.997 251.478 219.306 251.483 218.607C251.47 218.502 251.48 218.395 251.51 218.293C251.54 218.192 251.591 218.097 251.659 218.016C251.727 217.935 251.811 217.869 251.906 217.821C252.001 217.774 252.105 217.747 252.211 217.741C252.317 217.736 252.422 217.752 252.522 217.789C252.621 217.826 252.712 217.884 252.788 217.957C252.864 218.031 252.925 218.12 252.965 218.218C253.006 218.316 253.026 218.421 253.024 218.527V218.476Z" fill="#717791"/>
<path d="M176.026 169.992L176.083 192.769C176.083 193.847 175.024 194.724 173.712 194.724H130.539C129.227 194.724 128.162 193.847 128.162 192.769V171.948C128.162 170.87 129.227 169.992 130.539 169.992H157.261" fill="white"/>
<path d="M176.427 169.992C176.63 175.153 176.742 180.313 176.765 185.474V189.339V192.728C176.768 192.952 176.741 193.176 176.685 193.393C176.558 193.808 176.337 194.188 176.039 194.502C175.741 194.816 175.374 195.057 174.967 195.205C174.588 195.351 174.187 195.43 173.781 195.44H138.049H130.264C129.426 195.383 128.643 195.005 128.076 194.385C127.777 194.043 127.579 193.624 127.503 193.175C127.48 193.062 127.469 192.947 127.469 192.831V172.251C127.469 172.091 127.469 171.953 127.469 171.678C127.521 171.223 127.7 170.792 127.984 170.433C128.522 169.781 129.297 169.368 130.138 169.286C130.573 169.246 130.854 169.286 131.18 169.258H141.806C144.384 169.258 146.962 169.258 149.539 169.298C152.117 169.338 154.695 169.298 157.266 169.573C157.375 169.585 157.475 169.639 157.543 169.724C157.612 169.809 157.644 169.917 157.633 170.026C157.622 170.12 157.58 170.207 157.513 170.273C157.447 170.34 157.36 170.382 157.266 170.393C154.689 170.663 152.111 170.64 149.539 170.668C146.967 170.697 144.384 170.703 141.806 170.703H131.175C130.86 170.703 130.499 170.703 130.293 170.703C129.833 170.743 129.408 170.961 129.107 171.311C128.987 171.459 128.91 171.638 128.883 171.827C128.883 171.884 128.883 172.068 128.883 172.228V192.539C128.883 192.613 128.883 192.717 128.883 192.763C128.881 192.808 128.881 192.854 128.883 192.9C128.916 193.091 129.004 193.269 129.136 193.411C129.452 193.754 129.89 193.96 130.356 193.984H138.026H173.752C173.991 193.98 174.228 193.933 174.451 193.846C174.652 193.781 174.835 193.67 174.987 193.522C175.138 193.373 175.252 193.192 175.322 192.992C175.349 192.899 175.361 192.802 175.356 192.705V185.469C175.356 180.312 175.442 175.151 175.614 169.986C175.614 169.875 175.658 169.769 175.736 169.69C175.815 169.612 175.921 169.567 176.032 169.567C176.143 169.567 176.249 169.612 176.328 169.69C176.406 169.769 176.45 169.875 176.45 169.986L176.427 169.992Z" fill="#A3ACD6"/>
<path d="M138.587 185.086C140.817 184.879 143.056 184.793 145.295 184.828L152.002 184.885C154.236 184.885 156.47 184.96 158.704 184.988C160.938 185.017 163.178 185.097 165.412 185.172C165.502 185.183 165.585 185.227 165.645 185.295C165.705 185.363 165.738 185.451 165.738 185.542C165.738 185.632 165.705 185.72 165.645 185.788C165.585 185.856 165.502 185.9 165.412 185.911C163.178 185.992 160.942 186.053 158.704 186.095C156.47 186.129 154.236 186.192 152.002 186.198L145.295 186.255C143.056 186.293 140.817 186.206 138.587 185.997C138.475 185.985 138.372 185.931 138.297 185.847C138.221 185.763 138.18 185.654 138.18 185.542C138.18 185.429 138.221 185.32 138.297 185.236C138.372 185.152 138.475 185.098 138.587 185.086Z" fill="#A3ACD6"/>
<path d="M138.587 179.522C140.191 179.45 141.795 179.388 143.399 179.339C145.003 179.299 146.606 179.241 148.21 179.218L153.022 179.149C154.629 179.092 156.239 179.167 157.834 179.373C157.953 179.386 158.063 179.443 158.143 179.532C158.223 179.622 158.268 179.737 158.268 179.858C158.268 179.978 158.223 180.094 158.143 180.183C158.063 180.273 157.953 180.329 157.834 180.342C156.239 180.549 154.629 180.622 153.022 180.56L148.21 180.491C146.606 180.491 145.003 180.411 143.399 180.371C141.795 180.331 140.191 180.268 138.587 180.187C138.499 180.181 138.417 180.142 138.359 180.076C138.3 180.011 138.269 179.925 138.272 179.838C138.278 179.756 138.314 179.68 138.372 179.622C138.429 179.564 138.506 179.529 138.587 179.522Z" fill="#A3ACD6"/>
<path d="M161.041 179.523C161.665 179.377 162.299 179.276 162.937 179.219C163.252 179.185 163.567 179.167 163.888 179.15C164.053 179.122 164.221 179.128 164.383 179.166C164.546 179.205 164.699 179.275 164.833 179.374C164.908 179.431 164.969 179.504 165.01 179.588C165.052 179.672 165.074 179.765 165.074 179.858C165.074 179.952 165.052 180.045 165.01 180.129C164.969 180.213 164.908 180.286 164.833 180.343C164.698 180.44 164.545 180.509 164.382 180.546C164.22 180.584 164.052 180.589 163.888 180.561C163.567 180.561 163.252 180.526 162.937 180.498C162.299 180.439 161.665 180.336 161.041 180.188C160.953 180.166 160.878 180.111 160.831 180.034C160.783 179.956 160.769 179.863 160.789 179.775C160.806 179.715 160.838 179.66 160.882 179.616C160.926 179.572 160.981 179.54 161.041 179.523Z" fill="#A3ACD6"/>
</g>
<defs>
<clipPath id="clip0">
<rect width="354" height="246" fill="white"/>
</clipPath>
</defs>
</svg>
