<svg width="118" height="40" viewBox="0 0 118 40" fill="none" xmlns="http://www.w3.org/2000/svg">
<path fill-rule="evenodd" clip-rule="evenodd" d="M22.4889 1.13447C21.259 0.431515 19.7491 0.431515 18.5192 1.13447L7.28906 7.55309L24.7275 17.7643C26.4245 18.7579 26.4245 21.2421 24.7275 22.2358L7.28907 32.4469L18.5192 38.8655C19.7491 39.5685 21.259 39.5685 22.4889 38.8655L35.9851 31.1517C37.2312 30.4395 38.0002 29.1143 38.0002 27.679V12.321C38.0002 10.8857 37.2312 9.56047 35.9851 8.84825L22.4889 1.13447Z" fill="white"/>
<path fill-rule="evenodd" clip-rule="evenodd" d="M18.2273 21.2576C19.2576 20.6987 19.2576 19.3013 18.2273 18.7424L4.31818 11.1967C3.28788 10.6378 2 11.3365 2 12.4543V27.5457C2 28.6635 3.28788 29.3622 4.31818 28.8033L18.2273 21.2576ZM6 22C7.10457 22 8 21.1046 8 20C8 18.8954 7.10457 18 6 18C4.89543 18 4 18.8954 4 20C4 21.1046 4.89543 22 6 22Z" fill="#0A85ED"/>
<path fill-rule="evenodd" clip-rule="evenodd" d="M46 9.01259C46 3.72587 49.6961 0 54.9763 0C59.2004 0 62.268 2.16504 63.1983 5.79021H58.4461C57.7924 4.60699 56.5855 3.97762 54.9763 3.97762C52.2105 3.97762 50.375 5.94126 50.375 9.01259C50.375 12.2853 52.2356 14.1986 55.3283 14.1986C57.4655 14.1986 58.949 13.0657 59.6027 11.0769H54.1466V7.90489H63.5V11.9077C62.5948 14.9538 59.653 18 55.0014 18C49.7213 18 46 14.2993 46 9.01259ZM81 18H76.3853L71.9745 4.84615L67.5637 18H63L69.4759 0H74.5241L81 18ZM79 3.51282H83.7956V18H88.2044V3.51282H93V0H79V3.51282ZM95 0H108V4H95V0ZM95 7H108V11H95V7ZM108 14H95V18H108V14ZM54.9763 22C49.6961 22 46 25.7259 46 31.0126C46 36.2993 49.7213 40 55.0014 40C59.653 40 62.5948 36.9538 63.5 33.9077V29.9049H54.1466V33.0769H59.6027C58.949 35.0657 57.4655 36.1986 55.3283 36.1986C52.2356 36.1986 50.375 34.2853 50.375 31.0126C50.375 27.9413 52.2105 25.9776 54.9763 25.9776C56.5855 25.9776 57.7924 26.607 58.4461 27.7902H63.1983C62.268 24.165 59.2004 22 54.9763 22ZM81 40H76.3853L71.9745 26.8462L67.5637 40H63L69.4759 22H74.5241L81 40ZM118 22H105V26H118V22ZM118 29H105V33H118V29ZM105 36H118V40H105V36ZM87 22H83V40H87V22ZM88 29.1795L91.2125 40H94.7032L98.6745 29.2051V40H103V22H97.9157L92.9831 34.4615L88 22L88 29.1795Z" fill="white" fill-opacity="0.68"/>
</svg>
