<svg width="24" height="24" viewBox="0 0 24 24" fill="none" xmlns="http://www.w3.org/2000/svg">
<path fill-rule="evenodd" clip-rule="evenodd" d="M12.0003 2.1499C9.74448 2.1499 7.91031 3.98407 7.91031 6.2399V7.9099H4.80031C4.39728 7.9099 4.07031 8.23687 4.07031 8.6399V21.1199C4.07031 21.5229 4.39728 21.8499 4.80031 21.8499H19.2003C19.6033 21.8499 19.9303 21.5229 19.9303 21.1199V8.6399C19.9303 8.23687 19.6033 7.9099 19.2003 7.9099H16.0903V6.2399C16.0903 3.98407 14.2561 2.1499 12.0003 2.1499ZM9.37031 6.2399C9.37031 4.79013 10.5505 3.6099 12.0003 3.6099C13.4501 3.6099 14.6303 4.79013 14.6303 6.2399V7.9099H9.37031V6.2399ZM5.53031 20.3899V9.3699H18.4703V20.3899H5.53031Z" fill="white" fill-opacity="0.68"/>
</svg>
