<svg width="24" height="24" viewBox="0 0 24 24" fill="none" xmlns="http://www.w3.org/2000/svg">
<g clip-path="url(#clip0_1163_8842)">
<path d="M9.198 6.26662H18.0621M6.26948 18.169C6.26948 19.0699 5.5374 19.8 4.63509 19.8C3.73208 19.8 3 19.0699 3 18.169V10.3563C3 9.4505 3.73558 8.7169 4.6435 8.7169H6.26948V18.169ZM6.26948 18.169V5.45C6.26948 4.0969 7.36865 3 8.72492 3H18.5453C19.9008 3 21 4.0969 21 5.45V17.35C21 18.7031 19.9008 19.8 18.5453 19.8H4.63509L6.26948 18.169ZM9.198 14.4339H13.6339V11.167H9.198V14.4339ZM16.0889 14.0251H18.0624H16.0889ZM16.0889 11.5751H18.0624H16.0889ZM9.198 8.71662H18.0621H9.198Z" stroke="white" stroke-opacity="0.68" stroke-width="1.2" stroke-linecap="round" stroke-linejoin="round"/>
</g>
<defs>
<clipPath id="clip0_1163_8842">
<rect width="24" height="24" fill="white"/>
</clipPath>
</defs>
</svg>
