<svg width="108" height="128" viewBox="0 0 108 128" fill="none" xmlns="http://www.w3.org/2000/svg">
<path d="M53.9984 33.4156C57.228 33.4156 59.7897 30.8578 59.7897 27.6208V5.79477C59.7897 2.56324 57.2334 0 53.9984 0C50.7688 0 48.207 2.55785 48.207 5.79477V27.4901C48.207 30.7217 50.7686 33.4164 53.9984 33.4164V33.4156Z" fill="white" fill-opacity="0.47"/>
<path d="M23.024 34.763C23.9655 37.0524 26.1222 38.3998 28.4103 38.3998C29.2203 38.3998 29.8937 38.2629 30.6984 37.9945C33.6597 36.784 35.1431 33.2787 33.7966 30.3156L25.4489 10.2424C24.2391 7.27931 20.8727 5.79504 17.7745 7.14241C14.8131 8.35295 13.3297 11.8582 14.6763 14.8214L23.024 34.763Z" fill="white" fill-opacity="0.47"/>
<path d="M77.2919 37.994C77.9652 38.2624 78.7753 38.3992 79.58 38.3992C81.8681 38.3992 84.0248 37.0519 84.9663 34.7624L93.314 14.6893C94.5238 11.7261 93.1772 8.3577 90.2158 7.01033C87.1229 5.92611 83.6198 7.41034 82.4099 10.3735L74.0622 30.4466C72.8471 33.415 74.3305 36.7835 77.2918 37.9941L77.2919 37.994Z" fill="white" fill-opacity="0.47"/>
<path d="M107.453 85.9631L91.5619 52.6843C90.6204 50.6633 88.6005 49.3159 86.3124 49.3159H21.6769C19.3888 49.3159 17.369 50.6633 16.4274 52.6843L0.536529 85.9631C0.131507 86.7736 0 87.5788 0 88.5209V122.205C0 125.437 2.55633 128 5.79134 128H102.209C105.438 128 108 125.442 108 122.205V88.5209C107.995 87.7156 107.858 86.7683 107.453 85.9631H107.453ZM25.4492 61.0367H82.6786L92.641 81.9209H15.3504L25.4492 61.0367Z" fill="white" fill-opacity="0.47"/>
</svg>
