<svg width="24" height="24" viewBox="0 0 24 24" fill="none" xmlns="http://www.w3.org/2000/svg">
<path d="M21.6401 4C21.5043 3.91691 21.3453 3.87982 21.1868 3.89424C21.0283 3.90865 20.8786 3.97379 20.7601 4.08L15.2801 8.83L12.6501 4.23C12.5789 4.12274 12.4823 4.03475 12.3689 3.97388C12.2555 3.91302 12.1288 3.88116 12.0001 3.88116C11.8713 3.88116 11.7446 3.91302 11.6312 3.97388C11.5178 4.03475 11.4212 4.12274 11.3501 4.23L8.72005 8.83L3.24005 4C3.11269 3.90581 2.95846 3.85498 2.80005 3.85498C2.64164 3.85498 2.48742 3.90581 2.36005 4C2.22738 4.07749 2.1217 4.19385 2.05731 4.33335C1.99293 4.47286 1.97294 4.62877 2.00005 4.78L5.70005 19.58C5.74192 19.7422 5.83618 19.886 5.9682 19.989C6.10021 20.0921 6.26257 20.1487 6.43005 20.15H17.5301C17.6975 20.1487 17.8599 20.0921 17.9919 19.989C18.1239 19.886 18.2182 19.7422 18.2601 19.58L22.0001 4.78C22.0272 4.62877 22.0072 4.47286 21.9428 4.33335C21.8784 4.19385 21.7727 4.07749 21.6401 4V4ZM17.0001 18.65H7.00005L6.52005 16.75H17.4401L17.0001 18.65ZM17.8501 15.25H6.19005L4.06005 6.74L8.43005 10.56C8.51116 10.6347 8.60834 10.6898 8.7141 10.721C8.81986 10.7522 8.93138 10.7587 9.04005 10.74C9.15087 10.7232 9.25632 10.681 9.34824 10.6169C9.44015 10.5527 9.51605 10.4682 9.57005 10.37L12.0001 6.11L14.4301 10.37C14.4841 10.4682 14.56 10.5527 14.6519 10.6169C14.7438 10.681 14.8492 10.7232 14.9601 10.74C15.0687 10.7558 15.1795 10.748 15.2848 10.7169C15.3901 10.6858 15.4874 10.6323 15.5701 10.56L19.9401 6.74L17.8501 15.25Z" fill="white" fill-opacity="0.68"/>
</svg>
