<svg width="20" height="20" viewBox="0 0 20 20" fill="none" xmlns="http://www.w3.org/2000/svg">
<path d="M11.9732 7.06522C12.1342 7.22174 12.3356 7.3 12.5772 7.3C12.8188 7.3 13.0201 7.22174 13.1812 7.06522C13.3423 6.9087 13.4228 6.71304 13.4228 6.47826C13.4228 6.24348 13.3423 6.04783 13.1812 5.8913C13.0201 5.7087 12.8188 5.61739 12.5772 5.61739C12.3356 5.61739 12.1342 5.7087 11.9732 5.8913C11.8121 6.04783 11.7315 6.24348 11.7315 6.47826C11.7315 6.71304 11.8121 6.9087 11.9732 7.06522ZM6.81879 7.06522C6.97987 7.22174 7.18121 7.3 7.42282 7.3C7.66443 7.3 7.86577 7.22174 8.02685 7.06522C8.18792 6.9087 8.26846 6.71304 8.26846 6.47826C8.26846 6.24348 8.18792 6.04783 8.02685 5.8913C7.86577 5.7087 7.66443 5.61739 7.42282 5.61739C7.18121 5.61739 6.97987 5.7087 6.81879 5.8913C6.65772 6.04783 6.57718 6.24348 6.57718 6.47826C6.57718 6.71304 6.65772 6.9087 6.81879 7.06522ZM13.5436 3.42609C15.1812 4.6 16 6.16522 16 8.12174V8.98261H4V8.12174C4 6.16522 4.81879 4.6 6.45638 3.42609L4.6443 1.66522L5.36913 1L7.34228 2.91739C8.20134 2.5 9.08725 2.2913 10 2.2913C10.9128 2.2913 11.7987 2.5 12.6577 2.91739L14.6309 1L15.3557 1.66522L13.5436 3.42609ZM4 13.1304V9.80435H16V13.1304C16 14.7478 15.4094 16.1304 14.2282 17.2783C13.0738 18.4261 11.6644 19 10 19C8.33557 19 6.91275 18.4261 5.73154 17.2783C4.57718 16.1304 4 14.7478 4 13.1304Z" fill="#6C757D"/>
</svg>
