<svg width="20" height="20" viewBox="0 0 20 20" fill="none" xmlns="http://www.w3.org/2000/svg">
<path d="M18.8253 14.7281C19.2002 14.2876 19.044 13.627 17.6381 13.1865C16.4197 12.7146 14.8577 12.5573 13.5768 12.6831C12.702 12.809 11.9522 12.9663 11.2336 13.218V15.0112L14.3578 13.8787C14.8889 13.6899 15.6699 13.6584 16.1073 13.7843C16.5447 13.9416 16.4822 14.1933 15.9199 14.4135L11.2336 16.0809V17.8112L17.6381 15.4831C17.6381 15.4831 18.4817 15.1685 18.8253 14.7281ZM11.8272 11.8022C13.6705 12.6831 15.1076 11.8022 15.1076 9.47416C15.1076 7.05169 14.2641 5.98202 11.7648 5.13258C10.7963 4.78652 8.98426 4.25169 7.7346 4V17.0562L10.6713 18V7.05169C10.6713 6.54831 10.89 6.20225 11.2649 6.32809C11.7335 6.45393 11.8272 6.92584 11.8272 7.42921V11.8022ZM2.36107 15.9236C3.98563 16.4584 5.5477 16.5213 7.17226 16.2382V14.6966L5.70391 15.2315C5.1728 15.4202 4.39177 15.4517 3.95439 15.3258C3.51701 15.1685 3.61073 14.8854 4.14184 14.6966L7.17226 13.627V11.8966L2.95466 13.4067C2.95466 13.4067 1.95494 13.7528 1.33011 14.1933C0.705277 14.6652 0.923967 15.5146 2.36107 15.9236Z" fill="#6C757D"/>
</svg>
