<?xml version="1.0" standalone="no"?>
<!DOCTYPE svg PUBLIC "-//W3C//DTD SVG 20010904//EN"
 "http://www.w3.org/TR/2001/REC-SVG-20010904/DTD/svg10.dtd">
<svg version="1.0" xmlns="http://www.w3.org/2000/svg"
 width="64.000000pt" height="64.000000pt" viewBox="0 0 64.000000 64.000000"
 preserveAspectRatio="xMidYMid meet">

<g transform="translate(0.000000,64.000000) scale(0.100000,-0.100000)"
fill="#000000" stroke="none">
<path d="M210 590 l0 -50 -60 0 -60 0 0 -30 c0 -27 3 -30 30 -30 19 0 33 -7
40 -19 11 -21 14 -248 4 -275 -4 -9 -18 -16 -34 -16 -20 0 -29 -6 -34 -23 -12
-44 -9 -47 54 -47 l60 0 0 -50 c0 -49 1 -50 30 -50 29 0 30 1 30 50 0 43 3 50
20 50 17 0 20 -7 20 -50 0 -49 1 -50 30 -50 29 0 30 1 30 49 l0 48 45 6 c64 9
100 31 119 71 32 67 10 144 -45 161 -21 7 -21 7 -1 28 29 32 35 62 22 103 -9
27 -22 40 -54 55 -22 10 -51 19 -63 19 -21 0 -23 5 -23 50 0 49 -1 50 -30 50
-29 0 -30 -2 -30 -45 0 -38 -3 -45 -20 -45 -17 0 -20 7 -20 45 0 43 -1 45 -30
45 -29 0 -30 -1 -30 -50z m149 -123 c79 -28 46 -107 -44 -107 l-45 0 0 60 c0
59 0 60 28 59 15 0 42 -5 61 -12z m52 -193 c19 -18 25 -50 11 -71 -12 -18 -59
-33 -108 -33 l-44 0 0 66 0 67 61 -6 c37 -3 68 -12 80 -23z"/>
</g>
</svg>
